<svg width="61" height="40" viewBox="0 0 61 40" fill="none" xmlns="http://www.w3.org/2000/svg">
<path d="M41.1357 3.9501C39.1265 4.7929 37.2734 5.97197 35.6548 7.4374C34.0591 8.87644 32.9379 8.57708 31.4203 7.39014C28.4165 5.02675 25.4806 2.53207 22.07 0.762161C20.8654 0.137178 19.4574 -0.493057 18.1432 0.578343C16.829 1.64974 16.9698 3.20432 17.3088 4.69063C18.55 10.2157 21.4077 14.8427 25.199 18.9339C27.3579 21.2606 29.7828 23.2143 32.8805 24.1491C34.5858 24.6743 36.5309 24.5746 37.9494 23.4139C39.5138 22.1429 39.8111 20.2312 39.8945 18.33C39.3365 19.4696 38.4083 20.8982 37.2245 21.5914C36.6345 21.9061 35.9819 22.0832 35.3148 22.1095C34.6477 22.1359 33.9833 22.0109 33.3707 21.7437C30.5547 20.6513 28.088 18.2354 26.1011 16.0034C23.515 13.0565 21.5462 9.61425 20.3126 5.88282C20.2239 5.60972 20.1353 5.35763 20.0519 5.06877C19.812 4.29148 19.5304 3.46167 20.2761 2.88395C21.0218 2.30624 21.9605 2.60035 22.6906 3.12029C24.3906 4.33174 26.0681 5.56771 27.723 6.82818C31.6498 9.84805 31.6446 9.85856 27.7855 12.7209C27.65 12.8259 27.5039 12.9205 27.3631 13.0307C26.7008 13.5559 26.1376 14.1389 26.8416 14.9845C27.5457 15.83 29.0788 14.4593 29.4491 14.0286C30.9249 12.3848 31.8479 11.2766 33.282 11.1873C34.7161 11.098 36.1137 12.8627 37.8242 14.2334C40.2335 16.1504 41.9961 15.3941 43.5606 12.6579C44.6317 10.8442 45.2141 8.78045 45.2502 6.67062C45.3389 3.34613 44.275 2.62661 41.1357 3.9501ZM43.5658 7.65799C43.1643 9.36487 42.5698 12.1747 40.7289 12.6526C38.7212 13.1778 36.9742 11.2661 35.3941 9.74301C37.199 8.16611 39.2163 6.85415 41.386 5.84606C43.0704 5.13704 43.9778 5.88282 43.5658 7.65799Z" fill="white"/>
<path fill-rule="evenodd" clip-rule="evenodd" d="M2.40805 30.3989L4.76605 36.5868L7.15805 30.3989H8.56605L4.73805 40.0001L0.998047 30.3989H2.40805V30.3989Z" fill="white"/>
<path fill-rule="evenodd" clip-rule="evenodd" d="M11.1367 30.3989V39.6525H9.80273V30.3989H11.1367Z" fill="white"/>
<path fill-rule="evenodd" clip-rule="evenodd" d="M15.698 31.7119V39.6525H14.364V31.7119H12.332V30.3989H17.724V31.7119H15.698Z" fill="white"/>
<path fill-rule="evenodd" clip-rule="evenodd" d="M32.1142 31.7828L31.0322 32.4549C30.8302 32.0885 30.6382 31.8477 30.4542 31.7367C30.2642 31.609 30.0182 31.544 29.7162 31.544C29.3462 31.544 29.0382 31.655 28.7942 31.8728C28.5502 32.0885 28.4282 32.3607 28.4282 32.6874C28.4282 33.1397 28.7482 33.502 29.3902 33.7784L30.2722 34.1553C30.9902 34.459 31.5142 34.8296 31.8462 35.2673C32.1782 35.7049 32.3442 36.241 32.3442 36.8755C32.3442 37.7257 32.0742 38.4293 31.5322 38.9842C30.9862 39.5433 30.3102 39.8239 29.5002 39.8239C28.7342 39.8239 28.1002 39.5852 27.6002 39.1098C27.1082 38.6345 26.8002 37.9644 26.6782 37.1016L28.0282 36.7896C28.0902 37.3341 28.1962 37.7089 28.3482 37.9162C28.6222 38.3162 29.0242 38.5151 29.5502 38.5151C29.9662 38.5151 30.3122 38.3685 30.5862 38.0775C30.8602 37.7864 30.9982 37.4157 30.9982 36.9676C30.9982 36.7875 30.9742 36.6221 30.9262 36.4734C30.8782 36.3227 30.8042 36.1865 30.7022 36.0588C30.6002 35.9332 30.4702 35.8159 30.3102 35.7049C30.1502 35.596 29.9602 35.4892 29.7382 35.3908L28.8862 35.0202C27.6762 34.4841 27.0722 33.7009 27.0722 32.6706C27.0722 31.9754 27.3262 31.3933 27.8342 30.9263C28.3422 30.4551 28.9742 30.2185 29.7282 30.2185C30.7462 30.2248 31.5422 30.7441 32.1142 31.7828Z" fill="white"/>
<path fill-rule="evenodd" clip-rule="evenodd" d="M35.2861 39.6486V35.8919H35.9081C36.8281 35.8919 37.5581 35.6448 38.1002 35.1485C38.6421 34.6522 38.9121 33.98 38.9121 33.134C38.9121 32.3425 38.6582 31.687 38.1501 31.1677C37.8601 30.8683 37.5241 30.6652 37.1421 30.5563C36.7641 30.4495 36.2041 30.395 35.4641 30.395H33.9521V39.6486H35.2861ZM35.7832 34.5989H35.2872V31.686H35.7272C36.9892 31.686 37.6212 32.1635 37.6212 33.1184C37.6212 34.1047 37.0072 34.5989 35.7832 34.5989Z" fill="white"/>
<path fill-rule="evenodd" clip-rule="evenodd" d="M54.4375 30.9009V32.5552C53.6675 31.8809 52.8695 31.5417 52.0455 31.5417C51.1375 31.5417 50.3715 31.883 49.7495 32.5657C49.1235 33.2441 48.8115 34.0755 48.8115 35.0597C48.8115 36.0313 49.1235 36.8501 49.7495 37.516C50.3755 38.184 51.1415 38.5169 52.0495 38.5169C52.5195 38.5169 52.9175 38.4374 53.2455 38.2782C53.4295 38.1986 53.6175 38.0898 53.8155 37.9536C54.0115 37.8175 54.2195 37.6542 54.4375 37.4615V39.1452C53.6735 39.5975 52.8735 39.8215 52.0335 39.8215C50.7695 39.8215 49.6915 39.3608 48.7995 38.4374C47.9095 37.5055 47.4655 36.3831 47.4655 35.0701C47.4655 33.8912 47.8375 32.84 48.5815 31.9186C49.4975 30.7878 50.6815 30.2224 52.1355 30.2224C52.9295 30.2245 53.6955 30.4507 54.4375 30.9009Z" fill="white"/>
<path fill-rule="evenodd" clip-rule="evenodd" d="M60.9961 31.7118H57.4541V33.9356H60.8941V35.2486H57.4541V38.3415H60.9981V39.6545H56.1221V30.4009H60.9981V31.7118H60.9961Z" fill="white"/>
<path fill-rule="evenodd" clip-rule="evenodd" d="M17.8975 39.8263L21.7735 30.3989L25.7395 39.8263H24.2795L21.8015 33.7494L19.3575 39.8263H17.8975Z" fill="white"/>
<path fill-rule="evenodd" clip-rule="evenodd" d="M38.9082 39.8263L42.7842 30.3989L46.7502 39.8263H45.2902L42.8122 33.7494L40.3682 39.8263H38.9082Z" fill="white"/>
</svg>
