<svg width="54" height="18" viewBox="0 0 54 18" fill="none" xmlns="http://www.w3.org/2000/svg">
<path fill-rule="evenodd" clip-rule="evenodd" d="M15.4394 0.634277L8.16756 0.81687L5.59915 1.23185L3.22337 3.12418L1.31312 5.71368L0.703125 9.49816L1.20075 12.486L3.54443 15.4575L6.40178 17.2169L15.4394 17.4658V0.634277Z" fill="#060B1F"/>
<mask id="mask0_17_3204" style="mask-type:alpha" maskUnits="userSpaceOnUse" x="0" y="0" width="54" height="18">
<path fill-rule="evenodd" clip-rule="evenodd" d="M0 0H54V18H0V0Z" fill="white"/>
</mask>
<g mask="url(#mask0_17_3204)">
<path fill-rule="evenodd" clip-rule="evenodd" d="M9.04927 0H44.9343C47.3321 0 49.615 0.953532 51.3394 2.64312C53.031 4.31599 54 6.60781 54 9C54 11.3922 53.031 13.684 51.3394 15.3569C49.6314 17.0632 47.3321 18 44.9343 18H9.04927C6.65146 18 4.36861 17.0632 2.66058 15.3569C0.968978 13.7007 0 11.3922 0 9C0 6.60781 0.968978 4.31599 2.66058 2.64312C4.36861 0.953532 6.66788 0 9.04927 0ZM15.2746 16.9452V1.05298H9.05011C6.94792 1.05298 4.91143 1.88941 3.40048 3.39499C1.92237 4.8671 1.06836 6.89127 1.06836 9.0158C1.08478 11.1236 1.92237 13.1478 3.4169 14.6199C4.92785 16.1255 6.94792 16.9619 9.06654 16.9619L15.2746 16.9452Z" fill="white"/>
</g>
<path fill-rule="evenodd" clip-rule="evenodd" d="M8.67015 4.46631H10.8709V5.38638H9.9676V13.3492H10.8709V14.2693H7.70117V13.3492H8.67015V5.38638H7.70117V4.46631H8.67015Z" fill="white"/>
<path fill-rule="evenodd" clip-rule="evenodd" d="M42.0438 4.33252H42.865C44.688 4.33252 46.1825 5.8381 46.1825 7.7117V10.9738C46.1825 12.8307 44.7044 14.3362 42.865 14.353H42.0438C40.2208 14.353 38.7263 12.8474 38.7263 10.9738V7.7117C38.7427 5.85482 40.2208 4.34925 42.0438 4.33252ZM42.2079 5.52075H42.7006C43.801 5.52075 44.6879 6.4241 44.6879 7.54492V11.1416C44.6879 12.2624 43.801 13.1657 42.7006 13.1657H42.2079C41.1076 13.1657 40.2207 12.2624 40.2207 11.1416V7.54492C40.2371 6.4241 41.1076 5.52075 42.2079 5.52075ZM19.3789 5.43814H20.2493L23.3369 14.3043H25.045L28.1326 5.43814H29.003V4.51807H26.7201L25.9154 7.3452L24.191 12.4976L22.4665 7.3452L21.6618 4.51807H19.3789V5.43814ZM28.4941 13.401H29.3645L32.4521 4.51807H34.1601L37.2477 13.401H38.1182V14.321H35.8353L35.0306 11.4939H31.5817L30.7769 14.321H28.4941V13.401ZM33.3076 6.33936L32.043 10.555H34.5722L33.3076 6.33936Z" fill="#060B1F"/>
</svg>
