<svg width="20" height="18" viewBox="0 0 20 18" fill="none" xmlns="http://www.w3.org/2000/svg">
<path d="M19.1837 3.02043C18.3674 3.02043 17.551 3.02043 16.7347 3.02043C16.7347 2.28572 16.7347 1.55105 16.7347 0.816341C16.7347 0.365491 16.3692 0 15.9184 0C11.9728 0 8.0272 0 4.08161 0C3.63076 0 3.26527 0.365458 3.26527 0.816341C3.26527 1.55105 3.26527 2.28572 3.26527 3.02043C2.44893 3.02043 1.63262 3.02043 0.816276 3.02043C0.365458 3.02043 0 3.38592 0 3.83677C0 6.50344 0 9.17011 0 11.8368C0 12.2876 0.365458 12.6531 0.816341 12.6531C1.63268 12.6531 2.44899 12.6531 3.26533 12.6531C3.26533 13.617 3.26533 14.581 3.26533 15.5449C3.26533 16.0151 3.26533 16.4852 3.26533 16.9553C3.26533 17.2274 3.32036 17.4305 3.53072 17.6229C3.6287 17.7125 3.73331 17.7706 3.86108 17.8065C3.97942 17.8396 4.09638 17.8368 4.21599 17.8368C6.144 17.8368 8.07201 17.8368 9.99998 17.8368C11.928 17.8368 13.856 17.8368 15.784 17.8368C15.9037 17.8368 16.0207 17.8396 16.1391 17.8064C16.267 17.7705 16.3717 17.7123 16.4696 17.6225C16.68 17.4299 16.7347 17.2265 16.7347 16.9543C16.7347 16.484 16.7347 16.0136 16.7347 15.5432C16.7347 14.5799 16.7347 13.6165 16.7347 12.6532C17.551 12.6532 18.3673 12.6532 19.1837 12.6532C19.6345 12.6532 20 12.2877 20 11.8368C20 9.17015 20 6.50347 20 3.8368C20 3.38595 19.6346 3.02043 19.1837 3.02043ZM2.04082 5.89798C1.64634 5.89798 1.32654 5.57818 1.32654 5.1837C1.32654 4.78922 1.64634 4.46942 2.04082 4.46942C2.4353 4.46942 2.7551 4.78922 2.7551 5.1837C2.7551 5.57818 2.4353 5.89798 2.04082 5.89798ZM15.9184 17.0204H4.08164V10.5715H15.9184V17.0204ZM15.9184 3.02043C11.9728 3.02043 8.02724 3.02043 4.08164 3.02043C4.08164 2.55785 4.08164 2.09523 4.08164 1.63268C4.08164 1.18183 4.4471 0.816341 4.89798 0.816341C8.29933 0.816341 11.7007 0.816341 15.1021 0.816341C15.5529 0.816341 15.9184 1.1818 15.9184 1.63268C15.9184 2.0953 15.9184 2.55788 15.9184 3.02043Z" fill="#6B7788"/>
</svg>
