<svg width="21" height="21" viewBox="0 0 21 21" fill="none" xmlns="http://www.w3.org/2000/svg">
<path d="M10.5 0C4.70138 0 0 4.70138 0 10.5C0 16.2986 4.70138 21 10.5 21C16.2986 21 21 16.2986 21 10.5C21 4.70138 16.2986 0 10.5 0ZM10.5 17.2025C9.67925 17.2025 9.1175 16.5699 9.1175 15.75C9.1175 14.9065 9.70288 14.2975 10.5 14.2975C11.3426 14.2975 11.8825 14.9065 11.8825 15.75C11.8825 16.5707 11.3426 17.2025 10.5 17.2025ZM11.0442 11.6559C10.8351 12.369 10.1762 12.3813 9.95662 11.6559C9.70375 10.8194 8.80512 7.644 8.80512 5.58162C8.80512 2.86038 12.2098 2.84725 12.2098 5.58162C12.2089 7.65625 11.2621 10.9139 11.0442 11.6559Z" fill="#6B7788"/>
</svg>
