<svg xmlns="http://www.w3.org/2000/svg"><symbol id="icon-arrow" viewBox="0 0 37 8"><path d="M36.354 4.354a.5.5 0 0 0 0-.708L33.172.464a.5.5 0 1 0-.707.708L35.293 4l-2.828 2.828a.5.5 0 1 0 .707.708l3.182-3.182zM0 4.5h36v-1H0v1z"/></symbol><symbol id="icon-facebook" viewBox="0 0 24 24"><path d="M13.397 20.997V12.8h2.765l.411-3.21h-3.176V7.549c0-.926.258-1.56 1.587-1.56h1.684V3.127c-.82-.088-1.643-.13-2.467-.127-2.444 0-4.122 1.492-4.122 4.23v2.356H7.332v3.209h2.753v8.202h3.312z" fill="#fff"/></symbol><symbol id="icon-instagram" viewBox="0 0 24 24"><path d="M11.999 7.377a4.624 4.624 0 1 0 0 9.248 4.624 4.624 0 0 0 0-9.248zm0 7.627a3.004 3.004 0 1 1 0-6.008 3.004 3.004 0 0 1 0 6.008zM16.806 8.285a1.078 1.078 0 1 0 0-2.156 1.078 1.078 0 0 0 0 2.156z" fill="#fff"/><path d="M20.533 6.11A4.605 4.605 0 0 0 17.9 3.48a6.607 6.607 0 0 0-2.186-.42c-.963-.042-1.268-.054-3.71-.054s-2.755 0-3.71.054a6.554 6.554 0 0 0-2.184.42A4.6 4.6 0 0 0 3.477 6.11a6.585 6.585 0 0 0-.419 2.186c-.043.962-.056 1.267-.056 3.71 0 2.442 0 2.753.056 3.71.015.748.156 1.486.419 2.187a4.61 4.61 0 0 0 2.634 2.632 6.583 6.583 0 0 0 2.185.45c.963.042 1.268.055 3.71.055s2.755 0 3.71-.055a6.616 6.616 0 0 0 2.186-.42 4.613 4.613 0 0 0 2.633-2.632c.263-.7.404-1.438.419-2.186.043-.962.056-1.267.056-3.71s0-2.753-.056-3.71a6.583 6.583 0 0 0-.421-2.217zm-1.218 9.533a5.046 5.046 0 0 1-.311 1.688 2.987 2.987 0 0 1-1.712 1.71c-.535.2-1.1.305-1.67.312-.95.044-1.218.055-3.654.055-2.438 0-2.687 0-3.655-.055a4.961 4.961 0 0 1-1.67-.311 2.984 2.984 0 0 1-1.718-1.711 5.08 5.08 0 0 1-.311-1.67c-.043-.95-.053-1.217-.053-3.653 0-2.437 0-2.686.053-3.655a5.038 5.038 0 0 1 .311-1.687c.305-.79.93-1.41 1.719-1.712a5.01 5.01 0 0 1 1.669-.311c.95-.043 1.218-.055 3.655-.055s2.687 0 3.654.055a4.96 4.96 0 0 1 1.67.31 2.99 2.99 0 0 1 1.712 1.713c.197.535.302 1.099.311 1.669.043.95.054 1.218.054 3.655 0 2.436 0 2.698-.043 3.654h-.011v-.001z" fill="#fff"/></symbol><symbol id="icon-mail" viewBox="0 0 24 24"><path d="M3 9.057V16.5a3 3 0 0 0 3 3h12a3 3 0 0 0 3-3v-9a3 3 0 0 0-3-3H6a3 3 0 0 0-3 3v1.557zM6 6h12a1.5 1.5 0 0 1 1.5 1.5v1.11L12 12.648 4.5 8.61V7.5A1.5 1.5 0 0 1 6 6zm-1.5 4.314l7.145 3.846a.75.75 0 0 0 .71 0l7.145-3.846V16.5A1.5 1.5 0 0 1 18 18H6a1.5 1.5 0 0 1-1.5-1.5v-6.186z" fill="#fff"/></symbol><symbol id="icon-print" viewBox="0 0 20 18"><path d="M19.184 3.02h-2.45V.816A.816.816 0 0 0 15.919 0H4.082a.816.816 0 0 0-.817.816V3.02H.816A.816.816 0 0 0 0 3.837v8c0 .45.365.816.816.816h2.45v4.302c0 .272.054.476.265.668.098.09.202.148.33.183.118.034.235.03.355.03h11.568c.12 0 .237.004.355-.03a.785.785 0 0 0 .33-.184c.211-.192.266-.395.266-.668v-1.41-2.89h2.449c.45 0 .816-.366.816-.817v-8a.816.816 0 0 0-.816-.817zM2.04 5.898a.714.714 0 1 1 0-1.429.714.714 0 0 1 0 1.429zM15.918 17.02H4.082v-6.448h11.836v6.448zm0-14H4.082V1.633c0-.451.365-.817.816-.817h10.204c.45 0 .816.366.816.817V3.02z" fill="#6B7788"/></symbol><symbol id="icon-rss" viewBox="0 0 24 24"><path d="M6.18 20a2.18 2.18 0 1 0 0-4.36 2.18 2.18 0 0 0 0 4.36z" fill="#fff"/><path d="M4 4.44v2.83c7.03 0 12.73 5.7 12.73 12.73h2.83c0-8.59-6.97-15.56-15.56-15.56zm0 5.66v2.83c3.9 0 7.07 3.17 7.07 7.07h2.83c0-5.47-4.43-9.9-9.9-9.9z" fill="#fff"/></symbol><symbol id="icon-search" viewBox="0 0 16 16"><path d="M11.5 11.5L15 15M1 7a6 6 0 1 0 12 0A6 6 0 0 0 1 7z"/></symbol><symbol id="icon-warning" viewBox="0 0 21 21"><path d="M10.5 0C4.701 0 0 4.701 0 10.5S4.701 21 10.5 21 21 16.299 21 10.5 16.299 0 10.5 0zm0 17.203c-.82 0-1.383-.633-1.383-1.453 0-.844.586-1.453 1.383-1.453.843 0 1.383.61 1.383 1.453 0 .82-.54 1.453-1.383 1.453zm.544-5.547c-.209.713-.868.725-1.087 0-.253-.837-1.152-4.012-1.152-6.074 0-2.722 3.405-2.735 3.405 0-.001 2.074-.948 5.332-1.166 6.074z" fill="#6B7788"/></symbol></svg>