<svg width="70" height="14" viewBox="0 0 70 14" fill="none" xmlns="http://www.w3.org/2000/svg">
<path d="M6.76927 13.4119C6.70588 13.5601 6.6002 13.6881 6.46443 13.781C6.27028 13.8896 6.04657 13.9392 5.82265 13.9232C5.59304 13.9401 5.3634 13.8906 5.16322 13.781C5.02745 13.6881 4.92177 13.5601 4.85838 13.4119L0.219916 1.45414C0.154133 1.31511 0.101186 1.19153 0.0594707 1.08494C0.0215649 0.985966 0.00148829 0.881483 0.000106114 0.776C-0.00198414 0.667851 0.0268418 0.561228 0.0834339 0.467785C0.140026 0.374342 0.222207 0.297676 0.320996 0.24616C0.5311 0.122492 0.772673 0.0572619 1.01893 0.0577031C1.16541 0.0455486 1.31177 0.0821784 1.43356 0.16147C1.55534 0.240763 1.64516 0.35791 1.68799 0.493317L5.83869 11.1164L10.0664 0.473235C10.1177 0.355699 10.1949 0.250289 10.2926 0.16429C10.4109 0.0856809 10.5538 0.0490911 10.697 0.0607909C10.9323 0.0604803 11.1632 0.122469 11.3644 0.23998C11.4612 0.286588 11.5425 0.358281 11.5991 0.446982C11.6558 0.535682 11.6857 0.637865 11.6853 0.742015C11.6825 0.842331 11.6624 0.941501 11.6259 1.03551C11.5792 1.15514 11.5256 1.27221 11.4655 1.38617L6.76927 13.4119Z" fill="white"/>
<path d="M30.9921 0.777859C30.9807 0.680775 30.9949 0.582492 31.0333 0.49206C31.0717 0.401629 31.1331 0.321955 31.2119 0.260375C31.3936 0.154187 31.6046 0.103557 31.8168 0.115171C32.0262 0.104722 32.2338 0.157659 32.4104 0.266556C32.4869 0.329661 32.5461 0.409797 32.583 0.49999C32.6199 0.590182 32.6334 0.687697 32.6222 0.784039V4.88219H39.5342V0.777859C39.523 0.681517 39.5365 0.584007 39.5734 0.493814C39.6103 0.403622 39.6695 0.32348 39.746 0.260375C39.9238 0.153333 40.1319 0.102557 40.3412 0.115171C40.5534 0.103752 40.7643 0.154368 40.9461 0.260375C41.0245 0.322231 41.0857 0.401948 41.1241 0.492306C41.1625 0.582663 41.1769 0.680808 41.1659 0.777859V10.7955C41.1769 10.8925 41.1625 10.9907 41.1241 11.081C41.0857 11.1714 41.0245 11.2511 40.9461 11.313C40.7643 11.419 40.5534 11.4696 40.3412 11.4582C40.1319 11.4708 39.9238 11.42 39.746 11.313C39.6695 11.2498 39.6103 11.1697 39.5734 11.0795C39.5365 10.9893 39.523 10.8918 39.5342 10.7955V6.29098H32.6238V10.7893C32.635 10.8856 32.6216 10.9831 32.5846 11.0733C32.5477 11.1635 32.4885 11.2437 32.412 11.3068C32.2342 11.4138 32.0261 11.4646 31.8168 11.452C31.6046 11.4636 31.3936 11.413 31.2119 11.3068C31.1331 11.2452 31.0717 11.1655 31.0333 11.0751C30.9949 10.9847 30.9807 10.8864 30.9921 10.7893V0.777859Z" fill="white"/>
<path d="M22.8631 6.4592C24.0033 6.78668 24.8392 7.23156 25.3708 7.79384C25.9024 8.35612 26.1698 9.11664 26.173 10.0754C26.1895 10.6712 26.058 11.2622 25.7896 11.7993C25.5455 12.2652 25.1963 12.6727 24.7675 12.9918C24.3274 13.3131 23.8258 13.5478 23.2914 13.6823C22.7307 13.828 22.1523 13.9012 21.5715 13.9001C20.6149 13.9036 19.6632 13.7698 18.7476 13.5031C17.8725 13.2507 17.0821 12.7801 16.4565 12.1392C16.321 12.0151 16.2168 11.863 16.1516 11.6943C16.1212 11.5859 16.105 11.4744 16.1035 11.3622C16.1071 11.2553 16.1355 11.1507 16.1866 11.0558C16.2377 10.9609 16.3102 10.8782 16.3987 10.8138C16.5636 10.6624 16.7807 10.5749 17.0084 10.5682C17.1238 10.5779 17.2345 10.6168 17.3293 10.6809C17.4201 10.7437 17.5054 10.8134 17.5844 10.8895C18.2134 11.5074 18.8364 11.927 19.4536 12.1484C20.1226 12.3784 20.8291 12.4909 21.5394 12.4805C22.378 12.4805 23.0695 12.2941 23.6139 11.9214C24.1584 11.5486 24.4306 11.0028 24.4306 10.2839C24.4306 9.65266 24.2338 9.15372 23.8402 8.7871C23.4465 8.42049 22.7978 8.11154 21.894 7.86026L20.182 7.38603C18.9626 7.05855 18.0535 6.61676 17.4545 6.06066C16.8555 5.50456 16.5576 4.72808 16.5608 3.73122C16.5441 3.16155 16.69 2.59839 16.9828 2.10307C17.2598 1.6543 17.6361 1.26981 18.085 0.976966C18.5406 0.678861 19.0458 0.457875 19.5788 0.323546C20.1046 0.186728 20.6466 0.116114 21.1912 0.113465C22.0605 0.107324 22.9236 0.25498 23.7375 0.549079C24.5339 0.841558 25.2315 1.33904 25.7543 1.98722C25.8414 2.09828 25.9141 2.21914 25.9709 2.34714C26.0092 2.44597 26.0287 2.5506 26.0286 2.65608C26.0309 2.75727 26.009 2.85761 25.9648 2.94944C25.9206 3.04127 25.8552 3.12216 25.7735 3.18593C25.6225 3.31756 25.4269 3.39169 25.2232 3.39446C25.0964 3.39513 24.9714 3.36597 24.859 3.3095C24.7168 3.22988 24.5876 3.13045 24.4755 3.01446C24.0548 2.54209 23.5397 2.15598 22.9609 1.87909C22.3969 1.6415 21.7859 1.52501 21.1704 1.5377C20.8123 1.53692 20.4557 1.58159 20.1098 1.67055C19.7831 1.75216 19.4732 1.88695 19.1937 2.06909C18.9299 2.2437 18.7106 2.4734 18.5519 2.74105C18.3846 3.02634 18.2998 3.3496 18.3064 3.67715C18.303 3.89928 18.3394 4.12032 18.4139 4.33056C18.4954 4.54064 18.6229 4.73136 18.7878 4.88976C19.003 5.09308 19.2526 5.2597 19.5258 5.38252C19.9059 5.5584 20.3003 5.70409 20.7051 5.81814L22.8631 6.4592Z" fill="white"/>
<path d="M40.4319 13.9918H31.723C31.5315 13.9918 31.3478 13.9186 31.2124 13.7882C31.077 13.6579 31.001 13.481 31.001 13.2967C31.001 13.1123 31.077 12.9355 31.2124 12.8052C31.3478 12.6748 31.5315 12.6016 31.723 12.6016H40.4319C40.6234 12.6016 40.8071 12.6748 40.9425 12.8052C41.0779 12.9355 41.1539 13.1123 41.1539 13.2967C41.1539 13.481 41.0779 13.6579 40.9425 13.7882C40.8071 13.9186 40.6234 13.9918 40.4319 13.9918Z" fill="white"/>
<path d="M55.0826 13.9833H49.7126C49.5294 13.9715 49.3577 13.8932 49.2323 13.7641C49.1069 13.635 49.0371 13.4649 49.0371 13.2881C49.0371 13.1114 49.1069 12.9413 49.2323 12.8122C49.3577 12.6831 49.5294 12.6048 49.7126 12.593H55.0826C55.2658 12.6048 55.4375 12.6831 55.5629 12.8122C55.6883 12.9413 55.7581 13.1114 55.7581 13.2881C55.7581 13.4649 55.6883 13.635 55.5629 13.7641C55.4375 13.8932 55.2658 13.9715 55.0826 13.9833Z" fill="white"/>
<path d="M69.7243 7.31293C69.5593 6.76662 69.2742 6.26087 68.8884 5.82999C68.4951 5.403 68.0071 5.06669 67.4604 4.846C66.8145 4.59319 66.1214 4.47119 65.4244 4.48762C65.0517 4.48467 64.6802 4.52776 64.3189 4.61583C64.0158 4.69021 63.7213 4.79371 63.4397 4.92478C63.2227 5.02653 63.0155 5.14645 62.8203 5.28316C62.7 5.364 62.5892 5.45723 62.4898 5.56121L62.3615 5.623V0.872962C62.3493 0.696611 62.2679 0.531321 62.1338 0.410576C61.9998 0.289831 61.823 0.222656 61.6395 0.222656C61.4559 0.222656 61.2792 0.289831 61.1451 0.410576C61.0111 0.531321 60.9297 0.696611 60.9175 0.872962V6.39073C60.9171 6.49798 60.9429 6.60381 60.9929 6.69968C61.0875 7.00862 61.3555 7.16309 61.8497 7.16309C62.0299 7.1699 62.2087 7.12874 62.3663 7.04415C62.4945 6.97046 62.6187 6.89055 62.7385 6.80472L63.0289 6.60699C63.1929 6.48383 63.3692 6.37671 63.5552 6.28723C63.7939 6.17274 64.0432 6.07967 64.2996 6.00918C64.5986 5.92719 64.9082 5.88713 65.219 5.89023C65.6181 5.87597 66.016 5.94104 66.3878 6.08136C66.7596 6.22169 67.0975 6.43427 67.3802 6.70585C67.9385 7.2496 68.2177 8.07345 68.2177 9.17742C68.2177 10.1856 67.9594 11.0048 67.4428 11.6351C66.9261 12.2653 66.1298 12.5805 65.0537 12.5805C64.61 12.5939 64.1678 12.523 63.7525 12.3719C63.4451 12.2549 63.1616 12.0865 62.915 11.8745C62.722 11.7094 62.5592 11.514 62.4337 11.2968C62.331 11.1052 62.2524 10.9477 62.1962 10.8334C62.124 10.6673 62.0065 10.5232 61.8561 10.4163C61.7333 10.3481 61.5935 10.3134 61.4518 10.3159C61.2308 10.3204 61.0159 10.3858 60.8324 10.5043C60.7349 10.561 60.6548 10.6417 60.6004 10.7381C60.546 10.8345 60.5192 10.9431 60.5228 11.0527C60.5201 11.2258 60.5517 11.3977 60.6158 11.5594C60.6792 11.716 60.7587 11.8661 60.8533 12.0074C60.9861 12.2013 61.1308 12.3875 61.2865 12.565C61.5183 12.8212 61.7887 13.0425 62.0887 13.2215C62.4786 13.4572 62.8995 13.6416 63.3402 13.7699C63.9311 13.9344 64.5446 14.0114 65.1596 13.9985C65.8179 14.0054 66.4723 13.9009 67.093 13.6896C67.6788 13.4893 68.211 13.1659 68.6509 12.7429C69.0907 12.32 69.4273 11.808 69.636 11.2443C69.8902 10.572 70.0132 9.86027 69.9986 9.14498C70.0015 8.52461 69.9091 7.90724 69.7243 7.31293Z" fill="white"/>
<path d="M68.6555 1.46619H63.8421C63.6506 1.46619 63.467 1.39296 63.3316 1.26259C63.1962 1.13223 63.1201 0.955421 63.1201 0.77106C63.1201 0.5867 63.1962 0.409891 63.3316 0.279528C63.467 0.149165 63.6506 0.0759277 63.8421 0.0759277H68.6555C68.8469 0.0759277 69.0306 0.149165 69.166 0.279528C69.3014 0.409891 69.3775 0.5867 69.3775 0.77106C69.3775 0.955421 69.3014 1.13223 69.166 1.26259C69.0306 1.39296 68.8469 1.46619 68.6555 1.46619Z" fill="white"/>
<path d="M55.0951 2.28594C54.8992 1.80809 54.5911 1.38037 54.195 1.03626C53.7902 0.690173 53.3163 0.427344 52.8023 0.263892C52.2168 0.0820025 51.6044 -0.0066992 50.9893 0.00128668C50.3377 -0.012618 49.6888 0.0862722 49.0736 0.293243C48.5904 0.460756 48.1352 0.695465 47.7226 0.989912C47.3962 1.22362 47.107 1.50204 46.8643 1.81634C46.6972 2.03625 46.5434 2.26525 46.4038 2.5022C46.3178 2.64689 46.2545 2.80306 46.2161 2.96562C46.1889 3.0849 46.1744 3.20653 46.1727 3.32863C46.1684 3.43324 46.1934 3.53705 46.2451 3.62918C46.2967 3.7213 46.3731 3.79837 46.4664 3.85229C46.646 3.96933 46.8575 4.03274 47.0744 4.03457C47.2117 4.03726 47.3478 4.00978 47.4723 3.95424C47.6236 3.8546 47.7404 3.71364 47.8077 3.54953C47.8911 3.39505 47.9986 3.18806 48.1286 2.94554C48.2736 2.68664 48.4611 2.45193 48.6837 2.25041C48.9421 2.01381 49.2392 1.81968 49.5629 1.67577C49.9662 1.50247 50.4051 1.41955 50.8465 1.43325C51.684 1.43325 52.3541 1.65157 52.8569 2.08822C53.3596 2.52486 53.6109 3.18703 53.6109 4.07473C53.6139 4.4743 53.5394 4.87089 53.3911 5.24409C53.236 5.62541 53.0357 5.98824 52.7943 6.3254C52.5256 6.70265 52.228 7.05997 51.9038 7.39436C51.5615 7.75067 51.1952 8.12347 50.8048 8.51274C50.6588 8.66721 50.4711 8.84485 50.248 9.05339C50.2237 9.06864 50.2006 9.08568 50.179 9.10437L46.2626 12.6418C46.1465 12.7471 46.0663 12.8837 46.0325 13.0337C45.9987 13.1837 46.0128 13.3401 46.0731 13.4822C46.1333 13.6243 46.2369 13.7455 46.3701 13.8299C46.5033 13.9143 46.6599 13.9578 46.8193 13.9548C47.0105 13.9504 47.1932 13.8783 47.3328 13.7525L50.232 11.1264C50.3113 11.0719 50.3874 11.0131 50.4598 10.9503C50.7951 10.6537 51.1273 10.3525 51.4546 10.042C51.7819 9.73153 52.0964 9.43803 52.3868 9.15535C52.82 8.73827 53.2179 8.32171 53.5805 7.90566C53.9286 7.50768 54.2471 7.08646 54.5335 6.64516C54.798 6.24027 55.0133 5.80749 55.1753 5.35531C55.3284 4.92366 55.4065 4.47063 55.4063 4.01449C55.4185 3.42444 55.3128 2.83763 55.0951 2.28594Z" fill="white"/>
</svg>
