<svg width="207" height="49" viewBox="0 0 207 49" fill="none" xmlns="http://www.w3.org/2000/svg">
<path d="M66.5897 18.9474C66.5897 19.2676 66.5391 19.5942 66.438 19.9272C66.3368 20.2602 66.1851 20.574 65.9829 20.8686C65.7806 21.1503 65.5214 21.4001 65.2054 21.6178C64.8894 21.8356 64.5164 22.0021 64.0866 22.1174V22.1942C64.4659 22.2582 64.8261 22.3671 65.1675 22.5208C65.5214 22.6745 65.8312 22.8858 66.0967 23.1548C66.3621 23.4238 66.577 23.7504 66.7414 24.1346C66.9057 24.5189 66.9879 24.9736 66.9879 25.4987C66.9879 26.1903 66.8425 26.7923 66.5518 27.3046C66.2736 27.8041 65.9007 28.214 65.433 28.5342C64.9778 28.8544 64.4532 29.0913 63.859 29.245C63.2649 29.3987 62.6581 29.4756 62.0386 29.4756C61.8237 29.4756 61.5709 29.4756 61.2801 29.4756C60.9894 29.4756 60.6859 29.4628 60.3699 29.4372C60.0539 29.4244 59.7378 29.3987 59.4218 29.3603C59.1057 29.3347 58.8276 29.2899 58.5874 29.2258V15.9887C59.0552 15.9118 59.5987 15.8478 60.2182 15.7966C60.8376 15.7453 61.514 15.7197 62.2472 15.7197C62.7402 15.7197 63.2396 15.7646 63.7453 15.8542C64.2636 15.9311 64.7313 16.0912 65.1485 16.3345C65.5657 16.5651 65.907 16.8917 66.1725 17.3143C66.4506 17.737 66.5897 18.2813 66.5897 18.9474ZM62.1903 28.0923C62.5949 28.0923 62.9868 28.0475 63.366 27.9578C63.7453 27.8554 64.0803 27.7017 64.371 27.4967C64.6618 27.279 64.8894 27.0164 65.0537 26.709C65.2307 26.4017 65.3192 26.0366 65.3192 25.614C65.3192 25.0888 65.2117 24.6662 64.9968 24.346C64.7945 24.0258 64.5227 23.776 64.1814 23.5967C63.8527 23.4174 63.4798 23.2957 63.0626 23.2317C62.6454 23.1676 62.2283 23.1356 61.8111 23.1356H60.1613V27.9578C60.2498 27.9835 60.3762 28.0027 60.5406 28.0155C60.7049 28.0283 60.8819 28.0411 61.0715 28.0539C61.2612 28.0667 61.4571 28.0795 61.6594 28.0923C61.8616 28.0923 62.0386 28.0923 62.1903 28.0923ZM61.1474 21.7908C61.3623 21.7908 61.6214 21.7843 61.9248 21.7715C62.2283 21.7587 62.4811 21.7395 62.6834 21.7139C62.9868 21.6114 63.2712 21.4898 63.5367 21.3489C63.8022 21.1952 64.036 21.0223 64.2383 20.8301C64.4532 20.6252 64.6176 20.3947 64.7313 20.1385C64.8578 19.8695 64.921 19.5814 64.921 19.274C64.921 18.8513 64.8388 18.5055 64.6744 18.2365C64.5227 17.9547 64.3142 17.7306 64.0487 17.5641C63.7832 17.3976 63.4798 17.2823 63.1385 17.2183C62.7971 17.1414 62.4495 17.103 62.0955 17.103C61.6783 17.103 61.2928 17.1158 60.9388 17.1414C60.5975 17.1542 60.3383 17.1798 60.1613 17.2183V21.7908H61.1474Z" fill="white"/>
<path d="M76.4311 28.5534C76.0518 28.8608 75.5714 29.1042 74.9899 29.2835C74.421 29.4628 73.8142 29.5524 73.1695 29.5524C72.4489 29.5524 71.8231 29.4372 71.2921 29.2066C70.7612 28.9633 70.325 28.6239 69.9837 28.1884C69.6424 27.7401 69.3896 27.2086 69.2252 26.5938C69.0609 25.979 68.9787 25.2874 68.9787 24.5189C68.9787 22.8794 69.339 21.6306 70.0596 20.7725C70.7802 19.9144 71.8105 19.4853 73.1505 19.4853C73.5803 19.4853 74.0101 19.5365 74.44 19.639C74.8698 19.7287 75.2554 19.908 75.5967 20.1769C75.938 20.4459 76.2161 20.8301 76.4311 21.3297C76.646 21.8164 76.7534 22.4632 76.7534 23.2701C76.7534 23.6927 76.7155 24.1602 76.6396 24.6726H70.5526C70.5526 25.2361 70.6095 25.7356 70.7233 26.1711C70.837 26.6066 71.014 26.978 71.2542 27.2854C71.4944 27.58 71.8041 27.8105 72.1834 27.977C72.5753 28.1307 73.0494 28.2076 73.6056 28.2076C74.0354 28.2076 74.4652 28.1307 74.8951 27.977C75.3249 27.8233 75.6473 27.644 75.8622 27.4391L76.4311 28.5534ZM73.1695 20.8301C72.4236 20.8301 71.8231 21.0287 71.368 21.4257C70.9255 21.8228 70.6601 22.5016 70.5716 23.4622H75.2743C75.2743 22.4888 75.091 21.81 74.7244 21.4257C74.3578 21.0287 73.8395 20.8301 73.1695 20.8301Z" fill="white"/>
<path d="M80.1252 19.7158V22.3287C80.1252 22.6745 80.1442 22.9883 80.1821 23.2701C80.22 23.5391 80.2959 23.776 80.4097 23.9809C80.5235 24.1731 80.6878 24.3267 80.9027 24.442C81.1176 24.5445 81.4021 24.5957 81.756 24.5957C82.3249 24.5957 82.7927 24.5317 83.1593 24.4036C83.5259 24.2755 83.804 24.1346 83.9936 23.9809V19.7158H85.5107V29.3219H83.9936V25.2874C83.7914 25.4154 83.488 25.5563 83.0834 25.71C82.6915 25.8637 82.1479 25.9406 81.4526 25.9406C80.9849 25.9406 80.574 25.8893 80.22 25.7869C79.8661 25.6844 79.569 25.5051 79.3288 25.2489C79.0886 24.9928 78.9053 24.6534 78.7789 24.2307C78.6651 23.808 78.6082 23.2765 78.6082 22.6361V19.7158H80.1252Z" fill="white"/>
<path d="M94.238 25.076H89.9524V29.3219H88.4354V19.7158H89.9524V23.7312H94.238V19.7158H95.755V29.3219H94.238V25.076Z" fill="white"/>
<path d="M98.5243 20.4267C99.0047 20.1321 99.5609 19.9144 100.193 19.7735C100.838 19.6326 101.508 19.5621 102.203 19.5621C102.86 19.5621 103.385 19.6518 103.777 19.8311C104.182 20.0104 104.485 20.2474 104.687 20.542C104.902 20.8237 105.041 21.1375 105.104 21.4834C105.18 21.8292 105.218 22.175 105.218 22.5208C105.218 23.2893 105.199 24.0386 105.161 24.7686C105.123 25.4987 105.104 26.1903 105.104 26.8435C105.104 27.3174 105.123 27.7657 105.161 28.1884C105.199 28.611 105.269 29.0017 105.37 29.3603H104.251L103.853 28.0155H103.758C103.644 28.1948 103.499 28.3741 103.322 28.5534C103.158 28.7199 102.955 28.8736 102.715 29.0145C102.475 29.1426 102.197 29.2514 101.881 29.3411C101.565 29.4308 101.204 29.4756 100.8 29.4756C100.395 29.4756 100.016 29.4116 99.662 29.2835C99.3207 29.1554 99.0236 28.9761 98.7708 28.7455C98.518 28.5022 98.3157 28.214 98.164 27.881C98.0249 27.548 97.9554 27.1701 97.9554 26.7475C97.9554 26.1839 98.0692 25.7164 98.2967 25.345C98.5243 24.9607 98.8403 24.6598 99.2449 24.442C99.662 24.2115 100.155 24.0514 100.724 23.9617C101.305 23.8593 101.944 23.808 102.639 23.808C102.816 23.808 102.987 23.808 103.151 23.808C103.328 23.808 103.505 23.8208 103.682 23.8464C103.72 23.4622 103.739 23.1164 103.739 22.809C103.739 22.1045 103.6 21.6114 103.322 21.3297C103.044 21.0479 102.538 20.907 101.805 20.907C101.59 20.907 101.356 20.9262 101.103 20.9646C100.863 20.9902 100.61 21.0351 100.345 21.0991C100.092 21.1503 99.8454 21.2208 99.6052 21.3104C99.3776 21.3873 99.1753 21.477 98.9984 21.5794L98.5243 20.4267ZM101.217 28.1307C101.571 28.1307 101.887 28.0859 102.165 27.9963C102.443 27.8938 102.683 27.7721 102.886 27.6312C103.088 27.4775 103.252 27.311 103.379 27.1317C103.518 26.9524 103.619 26.7795 103.682 26.613V25.0184C103.505 25.0056 103.322 24.9992 103.132 24.9992C102.955 24.9864 102.778 24.98 102.601 24.98C102.209 24.98 101.824 25.0056 101.445 25.0568C101.078 25.0952 100.749 25.1785 100.458 25.3066C100.18 25.4218 99.9528 25.5883 99.7758 25.8061C99.6115 26.011 99.5293 26.2736 99.5293 26.5938C99.5293 27.0421 99.6873 27.4135 100.003 27.7081C100.319 27.9899 100.724 28.1307 101.217 28.1307Z" fill="white"/>
<path d="M112.805 25.345L111.345 25.5755L108.842 29.3219H107.002L109.278 26.0366L110.036 25.3258C109.379 25.2233 108.817 24.9543 108.349 24.5189C107.894 24.0834 107.666 23.4942 107.666 22.7514C107.666 22.175 107.761 21.6819 107.951 21.272C108.153 20.8622 108.437 20.5228 108.804 20.2538C109.17 19.9848 109.607 19.7927 110.112 19.6774C110.618 19.5493 111.187 19.4853 111.819 19.4853C112.287 19.4853 112.723 19.5173 113.127 19.5814C113.532 19.6454 113.93 19.7158 114.322 19.7927V29.3219H112.805V25.345ZM112.805 21.0223C112.641 20.9582 112.457 20.9134 112.255 20.8878C112.053 20.8494 111.876 20.8301 111.724 20.8301C110.915 20.8301 110.296 20.9774 109.866 21.272C109.449 21.5666 109.24 22.0341 109.24 22.6745C109.24 23.2509 109.461 23.6992 109.904 24.0194C110.359 24.3267 110.953 24.4804 111.686 24.4804C111.699 24.4804 111.718 24.4804 111.743 24.4804C111.768 24.4804 111.819 24.4804 111.895 24.4804C111.971 24.4804 112.078 24.4804 112.217 24.4804C112.356 24.4676 112.552 24.4548 112.805 24.442V21.0223Z" fill="white"/>
<path d="M129.97 23.6159L130.084 21.7908H129.989L129.307 23.2701L127.012 27.0357H126.481L124.092 23.2701L123.466 21.7908H123.39L123.542 23.5967V29.3219H122.139V19.7158H123.637L126.292 24.0194L126.841 25.1337H126.879L127.448 23.9809L129.932 19.7158H131.449V29.3219H129.97V23.6159Z" fill="white"/>
<path d="M133.83 24.5189C133.83 22.8922 134.184 21.6499 134.892 20.7917C135.612 19.9208 136.643 19.4853 137.983 19.4853C138.691 19.4853 139.304 19.607 139.822 19.8503C140.353 20.0809 140.789 20.4203 141.13 20.8686C141.472 21.304 141.725 21.8356 141.889 22.4632C142.053 23.078 142.135 23.7632 142.135 24.5189C142.135 26.1455 141.775 27.3943 141.055 28.2652C140.347 29.1234 139.323 29.5524 137.983 29.5524C137.275 29.5524 136.655 29.4372 136.124 29.2066C135.606 28.9633 135.176 28.6239 134.835 28.1884C134.494 27.7401 134.241 27.2086 134.076 26.5938C133.912 25.9662 133.83 25.2745 133.83 24.5189ZM135.404 24.5189C135.404 25.0056 135.448 25.4731 135.536 25.9214C135.638 26.3696 135.789 26.7603 135.992 27.0933C136.194 27.4263 136.459 27.6953 136.788 27.9002C137.117 28.1051 137.515 28.2076 137.983 28.2076C139.702 28.2204 140.562 26.9908 140.562 24.5189C140.562 24.0194 140.511 23.5455 140.41 23.0972C140.321 22.6489 140.176 22.2582 139.974 21.9252C139.771 21.5922 139.506 21.3297 139.177 21.1375C138.849 20.9326 138.45 20.8301 137.983 20.8301C136.263 20.8173 135.404 22.0469 135.404 24.5189Z" fill="white"/>
<path d="M149.517 21.0607H146.768C146.73 21.5986 146.692 22.1814 146.654 22.809C146.616 23.4238 146.559 24.045 146.483 24.6726C146.407 25.2874 146.306 25.8829 146.18 26.4593C146.053 27.0228 145.889 27.5224 145.687 27.9578C145.497 28.3933 145.257 28.7455 144.966 29.0145C144.688 29.2707 144.353 29.3987 143.961 29.3987C143.721 29.3987 143.512 29.3859 143.335 29.3603C143.158 29.3347 143 29.2899 142.861 29.2258L143.089 27.9386C143.241 27.9899 143.405 28.0155 143.582 28.0155C143.835 28.0155 144.062 27.9066 144.265 27.6889C144.467 27.4711 144.644 27.0613 144.795 26.4593C144.947 25.8445 145.074 24.9992 145.175 23.9233C145.276 22.8474 145.345 21.4449 145.383 19.7158H151.034V29.3219H149.517V21.0607Z" fill="white"/>
<path d="M153.422 24.5189C153.422 22.8922 153.776 21.6499 154.484 20.7917C155.205 19.9208 156.235 19.4853 157.575 19.4853C158.283 19.4853 158.896 19.607 159.414 19.8503C159.945 20.0809 160.382 20.4203 160.723 20.8686C161.064 21.304 161.317 21.8356 161.481 22.4632C161.646 23.078 161.728 23.7632 161.728 24.5189C161.728 26.1455 161.368 27.3943 160.647 28.2652C159.939 29.1234 158.915 29.5524 157.575 29.5524C156.867 29.5524 156.248 29.4372 155.717 29.2066C155.198 28.9633 154.769 28.6239 154.427 28.1884C154.086 27.7401 153.833 27.2086 153.669 26.5938C153.504 25.9662 153.422 25.2745 153.422 24.5189ZM154.996 24.5189C154.996 25.0056 155.04 25.4731 155.129 25.9214C155.23 26.3696 155.382 26.7603 155.584 27.0933C155.786 27.4263 156.052 27.6953 156.38 27.9002C156.709 28.1051 157.107 28.2076 157.575 28.2076C159.294 28.2204 160.154 26.9908 160.154 24.5189C160.154 24.0194 160.103 23.5455 160.002 23.0972C159.914 22.6489 159.768 22.2582 159.566 21.9252C159.364 21.5922 159.098 21.3297 158.77 21.1375C158.441 20.9326 158.043 20.8301 157.575 20.8301C155.856 20.8173 154.996 22.0469 154.996 24.5189Z" fill="white"/>
<path d="M172.39 31.7618H171.366L171.082 29.3219H163.952L163.667 31.7618H162.643V27.977H163.762C163.863 27.8362 163.996 27.5864 164.16 27.2278C164.325 26.8563 164.483 26.344 164.634 25.6908C164.799 25.0248 164.938 24.2051 165.052 23.2317C165.178 22.2454 165.254 21.0735 165.279 19.7158H171.006V27.977H172.39V31.7618ZM169.489 27.977V21.0607H166.644C166.619 21.5986 166.575 22.1878 166.512 22.8282C166.448 23.4558 166.36 24.0898 166.246 24.7302C166.145 25.3578 166.012 25.9534 165.848 26.5169C165.684 27.0805 165.494 27.5672 165.279 27.977H169.489Z" fill="white"/>
<path d="M173.737 24.5189C173.737 22.8922 174.091 21.6499 174.799 20.7917C175.519 19.9208 176.55 19.4853 177.89 19.4853C178.598 19.4853 179.211 19.607 179.729 19.8503C180.26 20.0809 180.696 20.4203 181.037 20.8686C181.379 21.304 181.632 21.8356 181.796 22.4632C181.96 23.078 182.042 23.7632 182.042 24.5189C182.042 26.1455 181.682 27.3943 180.962 28.2652C180.254 29.1234 179.23 29.5524 177.89 29.5524C177.182 29.5524 176.562 29.4372 176.031 29.2066C175.513 28.9633 175.083 28.6239 174.742 28.1884C174.4 27.7401 174.148 27.2086 173.983 26.5938C173.819 25.9662 173.737 25.2745 173.737 24.5189ZM175.311 24.5189C175.311 25.0056 175.355 25.4731 175.443 25.9214C175.545 26.3696 175.696 26.7603 175.899 27.0933C176.101 27.4263 176.366 27.6953 176.695 27.9002C177.024 28.1051 177.422 28.2076 177.89 28.2076C179.609 28.2204 180.469 26.9908 180.469 24.5189C180.469 24.0194 180.418 23.5455 180.317 23.0972C180.228 22.6489 180.083 22.2582 179.881 21.9252C179.678 21.5922 179.413 21.3297 179.084 21.1375C178.756 20.9326 178.357 20.8301 177.89 20.8301C176.17 20.8173 175.311 22.0469 175.311 24.5189Z" fill="white"/>
<path d="M190.901 28.6879C190.521 28.9697 190.073 29.181 189.554 29.3219C189.036 29.4756 188.492 29.5524 187.923 29.5524C187.19 29.5524 186.571 29.4372 186.065 29.2066C185.559 28.9633 185.142 28.6239 184.814 28.1884C184.497 27.7401 184.264 27.2086 184.112 26.5938C183.973 25.9662 183.903 25.2745 183.903 24.5189C183.903 22.8922 184.257 21.6499 184.965 20.7917C185.673 19.9208 186.691 19.4853 188.018 19.4853C188.625 19.4853 189.137 19.5365 189.554 19.639C189.984 19.7287 190.37 19.8631 190.711 20.0424L190.275 21.3681C189.984 21.2016 189.662 21.0735 189.308 20.9838C188.954 20.8814 188.574 20.8301 188.17 20.8301C186.375 20.8301 185.477 22.0597 185.477 24.5189C185.477 25.0056 185.521 25.4731 185.61 25.9214C185.711 26.3568 185.869 26.7475 186.084 27.0933C186.312 27.4263 186.602 27.6953 186.956 27.9002C187.323 28.1051 187.772 28.2076 188.303 28.2076C188.758 28.2076 189.162 28.1371 189.516 27.9963C189.883 27.8554 190.18 27.6953 190.408 27.516L190.901 28.6879Z" fill="white"/>
<path d="M198.724 21.0607H195.765V29.3219H194.248V21.0607H191.29V19.7158H198.724V21.0607Z" fill="white"/>
<path d="M201.747 27.977C202.215 28.0539 202.664 28.0923 203.094 28.0923C203.89 28.0923 204.478 27.9386 204.857 27.6312C205.237 27.311 205.426 26.8627 205.426 26.2864C205.426 25.7741 205.243 25.3514 204.876 25.0184C204.51 24.6854 203.934 24.5189 203.151 24.5189C202.936 24.5189 202.702 24.5253 202.449 24.5381C202.196 24.5509 201.962 24.5893 201.747 24.6534V27.977ZM201.747 23.3854C202.051 23.3341 202.342 23.3021 202.62 23.2893C202.898 23.2637 203.163 23.2509 203.416 23.2509C204.074 23.2509 204.63 23.3277 205.085 23.4814C205.54 23.6223 205.907 23.8208 206.185 24.077C206.475 24.3332 206.684 24.6405 206.81 24.9992C206.937 25.345 207 25.7164 207 26.1135C207 27.279 206.652 28.1243 205.957 28.6495C205.274 29.1746 204.206 29.4372 202.752 29.4372C201.943 29.4372 201.103 29.3987 200.23 29.3219V19.7158H201.747V23.3854Z" fill="white"/>
<path d="M63.1355 43.8306H60.4288V46.5122H59.4707V40.4452H60.4288V42.9812H63.1355V40.4452H64.0936V46.5122H63.1355V43.8306Z" fill="white"/>
<path d="M65.8427 40.8942C66.1461 40.7081 66.4974 40.5706 66.8966 40.4816C67.3038 40.3926 67.727 40.3481 68.1661 40.3481C68.5813 40.3481 68.9126 40.4048 69.1601 40.518C69.4156 40.6313 69.6073 40.7809 69.735 40.967C69.8707 41.1449 69.9586 41.3431 69.9985 41.5615C70.0464 41.7799 70.0704 41.9983 70.0704 42.2168C70.0704 42.7021 70.0584 43.1753 70.0344 43.6364C70.0105 44.0975 69.9985 44.5343 69.9985 44.9469C69.9985 45.2462 70.0105 45.5293 70.0344 45.7963C70.0584 46.0632 70.1023 46.3099 70.1662 46.5364H69.4596L69.208 45.6871H69.1482C69.0763 45.8003 68.9845 45.9136 68.8727 46.0268C68.7689 46.132 68.6412 46.2291 68.4895 46.318C68.3378 46.3989 68.1621 46.4677 67.9625 46.5243C67.7629 46.5809 67.5353 46.6093 67.2798 46.6093C67.0243 46.6093 66.7848 46.5688 66.5612 46.4879C66.3457 46.407 66.158 46.2938 65.9984 46.1482C65.8387 45.9945 65.7109 45.8125 65.6151 45.6021C65.5273 45.3918 65.4834 45.1532 65.4834 44.8862C65.4834 44.5303 65.5552 44.235 65.6989 44.0005C65.8427 43.7578 66.0423 43.5677 66.2978 43.4302C66.5612 43.2845 66.8726 43.1834 67.2319 43.1268C67.5992 43.0621 68.0024 43.0297 68.4416 43.0297C68.5533 43.0297 68.6611 43.0297 68.7649 43.0297C68.8767 43.0297 68.9885 43.0378 69.1003 43.054C69.1242 42.8113 69.1362 42.5929 69.1362 42.3988C69.1362 41.9539 69.0484 41.6424 68.8727 41.4645C68.6971 41.2865 68.3777 41.1975 67.9146 41.1975C67.7789 41.1975 67.6311 41.2096 67.4715 41.2339C67.3198 41.2501 67.1601 41.2784 66.9924 41.3188C66.8327 41.3512 66.677 41.3957 66.5253 41.4523C66.3816 41.5009 66.2538 41.5575 66.1421 41.6222L65.8427 40.8942ZM67.5433 45.7599C67.7669 45.7599 67.9665 45.7316 68.1421 45.6749C68.3178 45.6102 68.4695 45.5334 68.5972 45.4444C68.725 45.3473 68.8288 45.2422 68.9086 45.1289C68.9965 45.0157 69.0603 44.9065 69.1003 44.8013V43.7942C68.9885 43.7861 68.8727 43.782 68.7529 43.782C68.6412 43.774 68.5294 43.7699 68.4176 43.7699C68.1701 43.7699 67.9266 43.7861 67.687 43.8184C67.4555 43.8427 67.2479 43.8953 67.0643 43.9762C66.8886 44.049 66.7449 44.1541 66.6331 44.2917C66.5293 44.4211 66.4774 44.5869 66.4774 44.7892C66.4774 45.0723 66.5772 45.3069 66.7768 45.4929C66.9764 45.6709 67.2319 45.7599 67.5433 45.7599Z" fill="white"/>
<path d="M73.6405 44.3766L73.9758 45.5415H74.0357L74.2992 44.3645L75.4609 40.4452H76.431L74.6585 45.8933C74.5227 46.2897 74.387 46.674 74.2513 47.0461C74.1235 47.4182 73.9798 47.7498 73.8201 48.0411C73.6604 48.3323 73.4808 48.5628 73.2812 48.7327C73.0816 48.9107 72.85 48.9996 72.5865 48.9996C72.2991 48.9996 72.0636 48.9592 71.8799 48.8783L72.0476 48.0411C72.1514 48.0815 72.2512 48.1017 72.347 48.1017C72.5706 48.1017 72.7861 47.9804 72.9937 47.7377C73.2013 47.5031 73.373 47.0946 73.5087 46.5122L71.1015 40.4452H72.2033L73.6405 44.3766Z" fill="white"/>
<path d="M78.0816 40.4452V42.0954C78.0816 42.3138 78.0936 42.512 78.1175 42.69C78.1415 42.8599 78.1894 43.0095 78.2612 43.1389C78.3331 43.2603 78.4369 43.3574 78.5726 43.4302C78.7084 43.4949 78.888 43.5272 79.1116 43.5272C79.4709 43.5272 79.7663 43.4868 79.9978 43.4059C80.2294 43.325 80.405 43.236 80.5248 43.1389V40.4452H81.4829V46.5122H80.5248V43.964C80.397 44.0449 80.2054 44.1339 79.9499 44.231C79.7024 44.3281 79.3591 44.3766 78.9199 44.3766C78.6245 44.3766 78.365 44.3442 78.1415 44.2795C77.9179 44.2148 77.7303 44.1016 77.5786 43.9398C77.4269 43.778 77.3111 43.5636 77.2313 43.2967C77.1594 43.0297 77.1235 42.694 77.1235 42.2896V40.4452H78.0816Z" fill="white"/>
<path d="M86.9949 43.8306H84.2882V46.5122H83.3301V40.4452H84.2882V42.9812H86.9949V40.4452H87.953V46.5122H86.9949V43.8306Z" fill="white"/>
<path d="M89.4625 43.4787C89.4625 42.4513 89.6861 41.6667 90.1332 41.1247C90.5883 40.5746 91.239 40.2996 92.0854 40.2996C92.5325 40.2996 92.9197 40.3764 93.2471 40.5301C93.5824 40.6757 93.8579 40.8901 94.0735 41.1732C94.289 41.4483 94.4487 41.784 94.5525 42.1804C94.6563 42.5686 94.7082 43.0014 94.7082 43.4787C94.7082 44.506 94.4807 45.2947 94.0256 45.8448C93.5784 46.3868 92.9317 46.6578 92.0854 46.6578C91.6382 46.6578 91.247 46.585 90.9117 46.4394C90.5843 46.2857 90.3128 46.0713 90.0973 45.7963C89.8817 45.5132 89.722 45.1774 89.6182 44.7892C89.5144 44.3928 89.4625 43.956 89.4625 43.4787ZM90.4566 43.4787C90.4566 43.7861 90.4845 44.0813 90.5404 44.3645C90.6043 44.6476 90.7001 44.8943 90.8278 45.1046C90.9556 45.315 91.1233 45.4848 91.3308 45.6143C91.5384 45.7437 91.7899 45.8084 92.0854 45.8084C93.1712 45.8165 93.7142 45.0399 93.7142 43.4787C93.7142 43.1632 93.6822 42.8639 93.6184 42.5808C93.5625 42.2977 93.4706 42.0509 93.3429 41.8406C93.2151 41.6303 93.0475 41.4645 92.8399 41.3431C92.6323 41.2137 92.3808 41.149 92.0854 41.149C90.9995 41.1409 90.4566 41.9175 90.4566 43.4787Z" fill="white"/>
<path d="M96.7099 42.5686H101.788V43.4666H96.7099V42.5686Z" fill="white"/>
<path d="M107.73 41.2946H105.083V46.5122H104.125V40.4452H108.688V46.5122H107.73V41.2946Z" fill="white"/>
<path d="M110.199 43.4787C110.199 42.4513 110.423 41.6667 110.87 41.1247C111.325 40.5746 111.976 40.2996 112.822 40.2996C113.269 40.2996 113.656 40.3764 113.984 40.5301C114.319 40.6757 114.594 40.8901 114.81 41.1732C115.026 41.4483 115.185 41.784 115.289 42.1804C115.393 42.5686 115.445 43.0014 115.445 43.4787C115.445 44.506 115.217 45.2947 114.762 45.8448C114.315 46.3868 113.668 46.6578 112.822 46.6578C112.375 46.6578 111.984 46.585 111.648 46.4394C111.321 46.2857 111.049 46.0713 110.834 45.7963C110.618 45.5132 110.459 45.1774 110.355 44.7892C110.251 44.3928 110.199 43.956 110.199 43.4787ZM111.193 43.4787C111.193 43.7861 111.221 44.0813 111.277 44.3645C111.341 44.6476 111.437 44.8943 111.564 45.1046C111.692 45.315 111.86 45.4848 112.067 45.6143C112.275 45.7437 112.527 45.8084 112.822 45.8084C113.908 45.8165 114.451 45.0399 114.451 43.4787C114.451 43.1632 114.419 42.8639 114.355 42.5808C114.299 42.2977 114.207 42.0509 114.08 41.8406C113.952 41.6303 113.784 41.4645 113.576 41.3431C113.369 41.2137 113.117 41.149 112.822 41.149C111.736 41.1409 111.193 41.9175 111.193 43.4787Z" fill="white"/>
<path d="M120.56 41.2946H117.914V46.5122H116.955V40.4452H121.518V46.5122H120.56V41.2946Z" fill="white"/>
<path d="M125.125 44.3766L125.461 45.5415H125.521L125.784 44.3645L126.946 40.4452H127.916L126.143 45.8933C126.008 46.2897 125.872 46.674 125.736 47.0461C125.608 47.4182 125.465 47.7498 125.305 48.0411C125.145 48.3323 124.966 48.5628 124.766 48.7327C124.566 48.9107 124.335 48.9996 124.071 48.9996C123.784 48.9996 123.548 48.9592 123.365 48.8783L123.532 48.0411C123.636 48.0815 123.736 48.1017 123.832 48.1017C124.055 48.1017 124.271 47.9804 124.479 47.7377C124.686 47.5031 124.858 47.0946 124.994 46.5122L122.586 40.4452H123.688L125.125 44.3766Z" fill="white"/>
<path d="M132.002 41.2946H130.265C130.241 41.6343 130.217 42.0024 130.193 42.3988C130.169 42.7871 130.133 43.1794 130.085 43.5758C130.037 43.964 129.974 44.3402 129.894 44.7042C129.814 45.0601 129.71 45.3756 129.582 45.6507C129.463 45.9257 129.311 46.1482 129.127 46.318C128.952 46.4798 128.74 46.5607 128.492 46.5607C128.341 46.5607 128.209 46.5526 128.097 46.5364C127.985 46.5203 127.886 46.492 127.798 46.4515L127.942 45.6385C128.037 45.6709 128.141 45.6871 128.253 45.6871C128.413 45.6871 128.556 45.6183 128.684 45.4808C128.812 45.3433 128.924 45.0844 129.019 44.7042C129.115 44.3159 129.195 43.782 129.259 43.1025C129.323 42.423 129.367 41.5373 129.391 40.4452H132.96V46.5122H132.002V41.2946Z" fill="white"/>
<path d="M137.785 44.0005L136.863 44.1461L135.282 46.5122H134.121L135.558 44.4373L136.037 43.9883C135.622 43.9236 135.266 43.7537 134.971 43.4787C134.683 43.2037 134.54 42.8315 134.54 42.3624C134.54 41.9983 134.6 41.6869 134.719 41.4281C134.847 41.1692 135.027 40.9548 135.258 40.785C135.49 40.6151 135.765 40.4937 136.085 40.4209C136.404 40.34 136.763 40.2996 137.163 40.2996C137.458 40.2996 137.733 40.3198 137.989 40.3603C138.244 40.4007 138.496 40.4452 138.743 40.4937V46.5122H137.785V44.0005ZM137.785 41.2703C137.682 41.2299 137.566 41.2016 137.438 41.1854C137.31 41.1611 137.199 41.149 137.103 41.149C136.592 41.149 136.2 41.242 135.929 41.4281C135.666 41.6141 135.534 41.9094 135.534 42.3138C135.534 42.6778 135.674 42.961 135.953 43.1632C136.24 43.3574 136.616 43.4544 137.079 43.4544C137.087 43.4544 137.099 43.4544 137.115 43.4544C137.131 43.4544 137.163 43.4544 137.21 43.4544C137.258 43.4544 137.326 43.4544 137.414 43.4544C137.502 43.4463 137.626 43.4382 137.785 43.4302V41.2703Z" fill="white"/>
<path d="M140.487 40.4452H141.146L141.326 41.1732H141.374C141.557 40.8901 141.793 40.6757 142.08 40.5301C142.376 40.3764 142.711 40.2996 143.086 40.2996C143.885 40.2996 144.48 40.5382 144.871 41.0155C145.262 41.4928 145.458 42.2734 145.458 43.3574C145.458 43.867 145.39 44.3281 145.254 44.7406C145.126 45.1451 144.943 45.4889 144.703 45.772C144.464 46.0551 144.172 46.2735 143.829 46.4272C143.493 46.5809 143.118 46.6578 142.703 46.6578C142.408 46.6578 142.172 46.6376 141.996 46.5971C141.829 46.5648 141.645 46.5041 141.445 46.4151V48.939H140.487V40.4452ZM142.907 41.149C142.499 41.149 142.176 41.2582 141.937 41.4766C141.705 41.6869 141.541 42.0105 141.445 42.4473V45.4565C141.589 45.5698 141.753 45.6588 141.937 45.7235C142.12 45.7801 142.364 45.8084 142.667 45.8084C143.218 45.8084 143.653 45.6021 143.973 45.1896C144.3 44.7689 144.464 44.1541 144.464 43.3452C144.464 43.0136 144.436 42.7143 144.38 42.4473C144.324 42.1723 144.232 41.9417 144.104 41.7557C143.984 41.5615 143.825 41.4119 143.625 41.3067C143.434 41.2015 143.194 41.149 142.907 41.149Z" fill="white"/>
<path d="M150.632 43.8306H147.925V46.5122H146.967V40.4452H147.925V42.9812H150.632V40.4452H151.59V46.5122H150.632V43.8306Z" fill="white"/>
<path d="M154.393 45.6628C154.688 45.7113 154.972 45.7356 155.243 45.7356C155.746 45.7356 156.097 45.6385 156.297 45.4444C156.497 45.2422 156.596 44.959 156.596 44.595C156.596 44.2714 156.497 44.0045 156.297 43.7942C156.105 43.5839 155.766 43.4787 155.279 43.4787C155.143 43.4787 154.996 43.4827 154.836 43.4908C154.676 43.4989 154.528 43.5232 154.393 43.5636V45.6628ZM154.393 42.7628C154.584 42.7304 154.768 42.7102 154.944 42.7021C155.119 42.6859 155.287 42.6778 155.447 42.6778C155.854 42.6778 156.193 42.7264 156.465 42.8235C156.744 42.9124 156.968 43.0378 157.135 43.1996C157.303 43.3614 157.419 43.5555 157.483 43.782C157.554 44.0005 157.59 44.235 157.59 44.4858C157.59 45.2219 157.387 45.7558 156.98 46.0875C156.58 46.4192 155.93 46.585 155.027 46.585C154.516 46.585 153.986 46.5607 153.435 46.5122V40.4452H154.393V42.7628ZM158.537 40.4452H159.495V46.5122H158.537V40.4452Z" fill="white"/>
<path d="M165.078 42.9205L165.114 42.1682H165.078L164.587 42.9448L161.892 46.5122H161.341V40.4452H162.299V44.1461L162.263 44.862H162.311L162.778 44.1097L165.473 40.4452H166.036V46.5122H165.078V42.9205ZM162.718 37.9941C162.798 38.3662 162.934 38.6251 163.125 38.7707C163.325 38.9163 163.553 38.9891 163.808 38.9891C164.064 38.9891 164.291 38.9123 164.491 38.7586C164.69 38.6049 164.826 38.3541 164.898 38.0063L165.617 38.2368C165.545 38.706 165.337 39.066 164.994 39.3167C164.658 39.5675 164.255 39.6929 163.784 39.6929C163.569 39.6929 163.353 39.6646 163.137 39.608C162.93 39.5513 162.742 39.4664 162.575 39.3531C162.407 39.2399 162.263 39.0943 162.143 38.9163C162.024 38.7384 161.944 38.528 161.904 38.2854L162.718 37.9941Z" fill="white"/>
<path d="M174.677 41.2946H172.03V46.5122H171.072V40.4452H175.635V46.5122H174.677V41.2946Z" fill="white"/>
<path d="M177.146 43.4787C177.146 42.4513 177.369 41.6667 177.816 41.1247C178.272 40.5746 178.922 40.2996 179.769 40.2996C180.216 40.2996 180.603 40.3764 180.93 40.5301C181.266 40.6757 181.541 40.8901 181.757 41.1732C181.972 41.4483 182.132 41.784 182.236 42.1804C182.34 42.5686 182.391 43.0014 182.391 43.4787C182.391 44.506 182.164 45.2947 181.709 45.8448C181.262 46.3868 180.615 46.6578 179.769 46.6578C179.322 46.6578 178.93 46.585 178.595 46.4394C178.268 46.2857 177.996 46.0713 177.781 45.7963C177.565 45.5132 177.405 45.1774 177.301 44.7892C177.198 44.3928 177.146 43.956 177.146 43.4787ZM178.14 43.4787C178.14 43.7861 178.168 44.0813 178.224 44.3645C178.288 44.6476 178.383 44.8943 178.511 45.1046C178.639 45.315 178.807 45.4848 179.014 45.6143C179.222 45.7437 179.473 45.8084 179.769 45.8084C180.854 45.8165 181.397 45.0399 181.397 43.4787C181.397 43.1632 181.365 42.8639 181.302 42.5808C181.246 42.2977 181.154 42.0509 181.026 41.8406C180.898 41.6303 180.731 41.4645 180.523 41.3431C180.316 41.2137 180.064 41.149 179.769 41.149C178.683 41.1409 178.14 41.9175 178.14 43.4787Z" fill="white"/>
<path d="M183.902 40.4452H184.561L184.74 41.1732H184.788C184.972 40.8901 185.208 40.6757 185.495 40.5301C185.79 40.3764 186.126 40.2996 186.501 40.2996C187.299 40.2996 187.894 40.5382 188.285 41.0155C188.677 41.4928 188.872 42.2734 188.872 43.3574C188.872 43.867 188.804 44.3281 188.669 44.7406C188.541 45.1451 188.357 45.4889 188.118 45.772C187.878 46.0551 187.587 46.2735 187.244 46.4272C186.908 46.5809 186.533 46.6578 186.118 46.6578C185.822 46.6578 185.587 46.6376 185.411 46.5971C185.243 46.5648 185.06 46.5041 184.86 46.4151V48.939H183.902V40.4452ZM186.321 41.149C185.914 41.149 185.591 41.2582 185.351 41.4766C185.12 41.6869 184.956 42.0105 184.86 42.4473V45.4565C185.004 45.5698 185.168 45.6588 185.351 45.7235C185.535 45.7801 185.778 45.8084 186.082 45.8084C186.633 45.8084 187.068 45.6021 187.387 45.1896C187.715 44.7689 187.878 44.1541 187.878 43.3452C187.878 43.0136 187.85 42.7143 187.794 42.4473C187.739 42.1723 187.647 41.9417 187.519 41.7557C187.399 41.5615 187.24 41.4119 187.04 41.3067C186.848 41.2015 186.609 41.149 186.321 41.149Z" fill="white"/>
<path d="M194.003 41.2946H192.135V46.5122H191.176V41.2946H189.308V40.4452H194.003V41.2946Z" fill="white"/>
<path d="M194.859 40.8942C195.162 40.7081 195.514 40.5706 195.913 40.4816C196.32 40.3926 196.743 40.3481 197.182 40.3481C197.597 40.3481 197.929 40.4048 198.176 40.518C198.432 40.6313 198.623 40.7809 198.751 40.967C198.887 41.1449 198.975 41.3431 199.015 41.5615C199.063 41.7799 199.086 41.9983 199.086 42.2168C199.086 42.7021 199.075 43.1753 199.051 43.6364C199.027 44.0975 199.015 44.5343 199.015 44.9469C199.015 45.2462 199.027 45.5293 199.051 45.7963C199.075 46.0632 199.118 46.3099 199.182 46.5364H198.476L198.224 45.6871H198.164C198.092 45.8003 198.001 45.9136 197.889 46.0268C197.785 46.132 197.657 46.2291 197.506 46.318C197.354 46.3989 197.178 46.4677 196.979 46.5243C196.779 46.5809 196.551 46.6093 196.296 46.6093C196.04 46.6093 195.801 46.5688 195.577 46.4879C195.362 46.407 195.174 46.2938 195.014 46.1482C194.855 45.9945 194.727 45.8125 194.631 45.6021C194.543 45.3918 194.499 45.1532 194.499 44.8862C194.499 44.5303 194.571 44.235 194.715 44.0005C194.859 43.7578 195.058 43.5677 195.314 43.4302C195.577 43.2845 195.889 43.1834 196.248 43.1268C196.615 43.0621 197.019 43.0297 197.458 43.0297C197.569 43.0297 197.677 43.0297 197.781 43.0297C197.893 43.0297 198.005 43.0378 198.116 43.054C198.14 42.8113 198.152 42.5929 198.152 42.3988C198.152 41.9539 198.064 41.6424 197.889 41.4645C197.713 41.2865 197.394 41.1975 196.931 41.1975C196.795 41.1975 196.647 41.2096 196.488 41.2339C196.336 41.2501 196.176 41.2784 196.009 41.3188C195.849 41.3512 195.693 41.3957 195.541 41.4523C195.398 41.5009 195.27 41.5575 195.158 41.6222L194.859 40.8942ZM196.559 45.7599C196.783 45.7599 196.983 45.7316 197.158 45.6749C197.334 45.6102 197.486 45.5334 197.613 45.4444C197.741 45.3473 197.845 45.2422 197.925 45.1289C198.013 45.0157 198.076 44.9065 198.116 44.8013V43.7942C198.005 43.7861 197.889 43.782 197.769 43.782C197.657 43.774 197.546 43.7699 197.434 43.7699C197.186 43.7699 196.943 43.7861 196.703 43.8184C196.472 43.8427 196.264 43.8953 196.08 43.9762C195.905 44.049 195.761 44.1541 195.649 44.2917C195.545 44.4211 195.494 44.5869 195.494 44.7892C195.494 45.0723 195.593 45.3069 195.793 45.4929C195.993 45.6709 196.248 45.7599 196.559 45.7599Z" fill="white"/>
<path d="M204.118 41.2946H202.381C202.357 41.6343 202.333 42.0024 202.309 42.3988C202.285 42.7871 202.249 43.1794 202.201 43.5758C202.154 43.964 202.09 44.3402 202.01 44.7042C201.93 45.0601 201.826 45.3756 201.698 45.6507C201.579 45.9257 201.427 46.1482 201.243 46.318C201.068 46.4798 200.856 46.5607 200.609 46.5607C200.457 46.5607 200.325 46.5526 200.213 46.5364C200.102 46.5203 200.002 46.492 199.914 46.4515L200.058 45.6385C200.154 45.6709 200.257 45.6871 200.369 45.6871C200.529 45.6871 200.673 45.6183 200.8 45.4808C200.928 45.3433 201.04 45.0844 201.136 44.7042C201.231 44.3159 201.311 43.782 201.375 43.1025C201.439 42.423 201.483 41.5373 201.507 40.4452H205.076V46.5122H204.118V41.2946Z" fill="white"/>
<path d="M25.5779 34.3795C25.5779 34.3795 30.1261 29.0808 28.6469 19.501C27.1678 9.92117 19.865 1.12929 19.4428 0.564645C19.0206 0 19.0206 0 19.0206 0C19.0206 0 16.1043 10.9994 17.2211 19.6126C18.5954 30.2069 25.5779 34.3795 25.5779 34.3795Z" fill="#85D460"/>
<path d="M26.9468 10.0424L31.3549 5.05664C31.3549 5.05664 34.3468 10.9466 33.8845 17.2341C33.4222 23.5216 31.5958 27.9398 30.4401 29.7513C29.2843 31.5629 28.249 32.358 28.249 32.358C28.249 32.358 30.2057 28.052 29.9745 22.7296C29.7434 17.404 26.9468 10.0424 26.9468 10.0424Z" fill="#85D460"/>
<path d="M33.17 26.7902L33.148 28.9285C40.423 32.6586 45.6979 36.8909 44.6367 39.5156C43.2834 42.8667 35.9174 41.496 25.8071 36.8941C15.1819 32.0585 7.60546 25.8396 8.77662 22.3653C9.58984 19.9554 12.0232 20.1354 15.9103 21.5251L15.5775 19.8859C8.43124 17.6244 3.45775 17.2865 2.17042 21.0829C0.500029 26.0069 10.9243 34.6927 25.5904 41.3886C39.5501 47.7623 49.7421 49.6037 51.6605 44.8471C53.4062 40.5358 45.2992 32.567 33.17 26.7902Z" fill="#246CE2"/>
<path d="M48.4525 20.253C46.9594 17.6628 41.4603 17.5883 34.4302 19.6722L34.1524 22.0543C38.2972 20.9921 41.697 20.8586 42.4925 22.2406C44.2067 25.2128 36.3842 30.4397 26.7845 35.5734C16.6954 40.9649 8.71196 42.4215 6.7958 39.5177C5.4668 37.5052 7.07676 35.7349 10.4798 33.5423L8.91715 32.6199C2.8814 36.8188 -1.56648 41.4836 0.523305 44.6607C3.23497 48.7789 16.1114 45.757 30.0517 38.3251C43.3196 31.2503 50.8832 24.4674 48.4525 20.253Z" fill="#246CE2"/>
<path d="M13.9736 28.1571L16.9678 26.29L17.9658 27.2219L15.1945 29.3235L13.9736 28.1571Z" fill="#246CE2"/>
</svg>
