<svg width="30" height="30" viewBox="0 0 30 30" fill="none" xmlns="http://www.w3.org/2000/svg">
<path fill-rule="evenodd" clip-rule="evenodd" d="M14.3158 18.6225H15.6838L16.5586 16.1961H18.7546V15.1941H16.9198L17.1736 14.4909H18.7546V13.4889H17.5348L18.2974 11.3738H16.8988L15.286 16.1007C15.1972 16.3797 15.1054 16.7337 15.01 17.1627H14.9896L14.7142 16.1007L13.1212 11.3738H11.7022L12.4648 13.4889H11.245V14.4909H12.826L13.0798 15.1941H11.245V16.1961H13.441L14.3158 18.6225ZM21.0089 2.48177C20.4599 2.48417 19.987 2.28857 19.6006 1.89857C17.086 -0.640049 12.9088 -0.626849 10.3996 1.90217C10.0138 2.29097 9.54097 2.48657 8.99257 2.48357C5.41834 2.46557 2.46392 5.4362 2.48372 8.98822C2.48672 9.53723 2.29112 10.0106 1.90112 10.397C-0.627303 12.9021 -0.641103 17.0769 1.90412 19.5975C2.29292 19.9827 2.48912 20.4549 2.48732 21.0027C2.48132 22.7151 3.16173 24.3747 4.39233 25.6047L4.39533 25.6017C5.62834 26.8336 7.28616 27.5188 8.99377 27.5122C9.54097 27.5104 10.0126 27.7066 10.3978 28.0954C12.9004 30.6202 17.0776 30.6412 19.5994 28.0942C19.9859 27.7042 20.4593 27.5086 21.0077 27.511C24.5837 27.5296 27.5345 24.5523 27.5159 21.0063C27.5129 20.4579 27.7091 19.9845 28.0985 19.5987C30.6287 17.0913 30.6395 12.9159 28.0967 10.3982C27.7067 10.0118 27.5105 9.53843 27.5135 8.99002C27.5315 5.41399 24.5549 2.46317 21.0089 2.48177ZM5.17414 8.25082C5.15914 8.33002 5.14594 8.40922 5.13634 8.48842C5.10754 8.71042 5.09974 8.93542 5.11174 9.16102L6.38915 9.89903L6.97655 9.74723C7.05635 9.72623 7.13495 9.70343 7.21296 9.67883L5.17414 8.25082ZM5.54254 7.20501C5.40454 7.46601 5.29894 7.73961 5.22634 8.01981L7.46616 9.58763C7.66836 9.50783 7.86096 9.41243 8.04276 9.30262L5.54254 7.20501ZM6.17375 6.3266C5.97155 6.5396 5.79814 6.76881 5.65234 7.01001L8.23656 9.17782C8.39076 9.07102 8.53717 8.95342 8.67277 8.82562L6.17375 6.3266ZM7.01315 5.6498C6.77195 5.795 6.54275 5.969 6.32975 6.1706L8.82877 8.66962C8.95657 8.53402 9.07417 8.38822 9.18097 8.23342L7.01315 5.6498ZM8.02296 5.22379C7.74276 5.29639 7.46976 5.40199 7.20816 5.54L9.30577 8.03961C9.41497 7.85841 9.51037 7.66581 9.59017 7.46301L8.02296 5.22379ZM9.16417 5.10919C8.93857 5.09719 8.71297 5.10559 8.49037 5.13379C8.41176 5.14399 8.33256 5.15659 8.25396 5.17159L9.68137 7.20981C9.70597 7.13241 9.72877 7.05381 9.74917 6.97401L9.90158 6.386L9.16417 5.10919ZM13.2538 5.7302L12.8218 3.27978C12.7558 3.32478 12.6904 3.37218 12.6274 3.42078C12.4504 3.55818 12.2854 3.71118 12.1348 3.87798L12.5164 5.30359L13.0384 5.6114C13.1098 5.6534 13.1812 5.693 13.2538 5.7302ZM14.1064 6.0512L13.822 2.79918C13.5406 2.88678 13.273 3.00558 13.0234 3.15258L13.498 5.8448C13.6978 5.9318 13.9012 6.0002 14.1064 6.0512ZM14.8894 6.1592V2.62277C14.5966 2.63117 14.3116 2.67017 14.038 2.73858L14.332 6.0998C14.5168 6.134 14.7034 6.1538 14.8894 6.1592ZM15.6682 6.0998L15.9622 2.74038C15.6886 2.67257 15.4036 2.63297 15.1102 2.62517V6.1592C15.2968 6.1538 15.4834 6.134 15.6682 6.0998ZM16.5022 5.8448L16.9774 3.15318C16.7278 3.00678 16.4602 2.88798 16.1782 2.80038L15.8938 6.0506C16.099 6.0002 16.3024 5.9312 16.5022 5.8448ZM17.4838 5.30359L17.866 3.87918C17.7148 3.71178 17.5492 3.55818 17.3722 3.42078C17.3092 3.37218 17.2444 3.32478 17.1784 3.28038L16.7464 5.7296C16.819 5.6924 16.8904 5.6528 16.9618 5.6114L17.4838 5.30359ZM8.25336 24.8235C8.33196 24.8385 8.41116 24.8511 8.49037 24.8613C8.71297 24.8895 8.93797 24.8979 9.16297 24.8859L9.90098 23.6085L9.74917 23.0211C9.72877 22.9407 9.70597 22.8621 9.68077 22.7847L8.25336 24.8235ZM7.20756 24.4551C7.46856 24.5931 7.74216 24.6987 8.02176 24.7707L9.59017 22.5315C9.50977 22.3287 9.41497 22.1361 9.30517 21.9549L7.20756 24.4551ZM6.32855 23.8239C6.54215 24.0255 6.77075 24.1995 7.01195 24.3447L9.18037 21.7611C9.07357 21.6063 8.95597 21.4605 8.82817 21.3249L6.32855 23.8239ZM5.65174 22.9845C5.79694 23.2257 5.97095 23.4549 6.17315 23.6679L8.67217 21.1689C8.53656 21.0411 8.39076 20.9235 8.23596 20.8167L5.65174 22.9845ZM5.22634 21.9747C5.29894 22.2543 5.40454 22.5279 5.54194 22.7895L8.04216 20.6919C7.86036 20.5827 7.66776 20.4873 7.46496 20.4069L5.22634 21.9747ZM5.11114 20.8329C5.09974 21.0585 5.10754 21.2841 5.13634 21.5067C5.14594 21.5859 5.15854 21.6651 5.17354 21.7431L7.21176 20.3163C7.13495 20.2917 7.05635 20.2683 6.97655 20.2479L6.38795 20.0961L5.11114 20.8329ZM5.73274 16.7433L3.28233 17.1753C3.32733 17.2419 3.37413 17.3067 3.42333 17.3703C3.56013 17.5473 3.71313 17.7117 3.88053 17.8623L5.30674 17.4807L5.61394 16.9593C5.65594 16.8879 5.69554 16.8159 5.73274 16.7433ZM6.05375 15.8907L2.80232 16.1751C2.88992 16.4565 3.00872 16.7247 3.15513 16.9737L5.84795 16.4991C5.93435 16.2993 6.00275 16.0959 6.05375 15.8907ZM6.16175 15.1071H2.62772C2.63552 15.4005 2.67452 15.6855 2.74232 15.9585L6.10235 15.6651C6.13655 15.4797 6.15635 15.2937 6.16175 15.1071ZM6.10235 14.3295L2.74292 14.0355C2.67512 14.3085 2.63552 14.5941 2.62772 14.8875H6.16175C6.15575 14.7009 6.13595 14.5143 6.10235 14.3295ZM5.84735 13.4949L3.15573 13.0203C3.00932 13.2699 2.89052 13.5375 2.80292 13.8195L6.05375 14.1039C6.00275 13.8981 5.93375 13.6953 5.84735 13.4949ZM5.30614 12.5138L3.88113 12.1316C3.71373 12.2828 3.56073 12.4478 3.42333 12.6248C3.37473 12.6878 3.32733 12.7526 3.28293 12.8193L5.73214 13.2513C5.69494 13.1787 5.65534 13.1073 5.61394 13.0359L5.30614 12.5138ZM24.8261 21.7437C24.8411 21.6651 24.8537 21.5865 24.8639 21.5067C24.8921 21.2847 24.9005 21.0591 24.8885 20.8335L23.6111 20.0961L23.0237 20.2479C22.9433 20.2683 22.8647 20.2917 22.7873 20.3163L24.8261 21.7437ZM24.4577 22.7901C24.5957 22.5285 24.7007 22.2555 24.7733 21.9753L22.5341 20.4069C22.3313 20.4873 22.1387 20.5827 21.9575 20.6919L24.4577 22.7901ZM23.8265 23.6685C24.0281 23.4555 24.2021 23.2263 24.3479 22.9851L21.7637 20.8167C21.6089 20.9235 21.4631 21.0411 21.3275 21.1689L23.8265 23.6685ZM22.9871 24.3453C23.2283 24.2001 23.4575 24.0261 23.6705 23.8245L21.1715 21.3249C21.0437 21.4611 20.9261 21.6063 20.8193 21.7617L22.9871 24.3453ZM21.9773 24.7713C22.2575 24.6987 22.5305 24.5931 22.7921 24.4557L20.6945 21.9555C20.5847 22.1367 20.4893 22.3293 20.4095 22.5321L21.9773 24.7713ZM20.8355 24.8859C21.0611 24.8979 21.2867 24.8895 21.5093 24.8613C21.5885 24.8511 21.6677 24.8391 21.7457 24.8235L20.3189 22.7853C20.2937 22.8621 20.2709 22.9413 20.2505 23.0211L20.098 23.6091L20.8355 24.8859ZM16.7458 24.2649L17.1778 26.7154C17.2438 26.6704 17.3092 26.6236 17.3722 26.5744C17.5492 26.4376 17.7142 26.284 17.8648 26.1165L17.4832 24.6915L16.9618 24.3837C16.8898 24.3417 16.8184 24.3021 16.7458 24.2649ZM15.8932 23.9439L16.1776 27.1948C16.4596 27.1072 16.7272 26.989 16.9762 26.8426L16.5016 24.1497C16.3018 24.0633 16.0984 23.9949 15.8932 23.9439ZM15.1096 23.8359V27.37C15.403 27.3622 15.688 27.3232 15.961 27.2548L15.6676 23.8953C15.4822 23.8611 15.2962 23.8413 15.1096 23.8359ZM14.332 23.8953L14.0374 27.2566C14.3116 27.325 14.5966 27.364 14.89 27.3724V23.8359C14.7034 23.8413 14.5168 23.8611 14.332 23.8953ZM13.498 24.1503L13.0228 26.8426C13.2724 26.989 13.54 27.1084 13.822 27.196L14.1064 23.9439C13.9012 23.9949 13.6972 24.0633 13.498 24.1503ZM12.5164 24.6915L12.1342 26.1165C12.2854 26.284 12.4504 26.437 12.6274 26.5744C12.6904 26.623 12.7552 26.6698 12.8218 26.7154L13.2538 24.2655C13.1812 24.3027 13.1098 24.3417 13.0384 24.3837L12.5164 24.6915ZM24.2675 13.2519L26.7173 12.8198C26.6729 12.7532 26.6255 12.6884 26.5763 12.6248C26.4395 12.4478 26.2865 12.2834 26.1191 12.1322L24.6935 12.5144L24.3863 13.0359C24.3443 13.1073 24.3047 13.1793 24.2675 13.2519ZM23.9465 14.1039L27.1973 13.8201C27.1097 13.5381 26.9909 13.2705 26.8445 13.0209L24.1523 13.4961C24.0659 13.6959 23.9975 13.8987 23.9465 14.1039ZM23.8385 14.8875H27.3725C27.3647 14.5947 27.3251 14.3097 27.2573 14.0361L23.8979 14.3301C23.8637 14.5149 23.8439 14.7015 23.8385 14.8875ZM23.8979 15.6657L27.2573 15.9597C27.3251 15.6861 27.3647 15.4011 27.3725 15.1077H23.8385C23.8439 15.2943 23.8637 15.4803 23.8979 15.6657ZM24.1523 16.4997L26.8445 16.9743C26.9909 16.7247 27.1097 16.4577 27.1973 16.1757L23.9465 15.8913C23.9975 16.0965 24.0659 16.2999 24.1523 16.4997ZM24.6941 17.4813L26.1191 17.8629C26.2865 17.7123 26.4395 17.5473 26.5763 17.3703C26.6255 17.3067 26.6723 17.2419 26.7173 17.1759L24.2675 16.7439C24.3047 16.8159 24.3443 16.8879 24.3863 16.9587L24.6941 17.4813ZM24.8651 9.42922L23.9153 9.97763L24.4277 10.1102C24.3881 10.2254 24.3425 10.34 24.2909 10.4522C24.2375 10.5698 24.1769 10.6862 24.1097 10.7996L23.9639 11.0474L23.9243 11.1152L22.7477 10.811C21.8519 10.5794 21.0773 10.1372 20.4689 9.52883C19.8598 8.92042 19.4182 8.14582 19.1866 7.25001L18.7384 5.5178C18.5998 4.97959 18.358 4.49599 18.0382 4.08559L17.755 5.14339L18.2092 4.87579C18.265 4.98919 18.3142 5.10139 18.3556 5.21359C18.4 5.33299 18.4396 5.4578 18.4726 5.5868L18.5446 5.8652L18.5644 5.9414L17.5174 6.5588C16.72 7.02861 15.8602 7.26381 14.9998 7.26381C14.14 7.26381 13.2796 7.02861 12.4828 6.5588L10.9408 5.6504C10.462 5.36839 9.94898 5.19679 9.43177 5.13259L9.98018 6.0818L10.1122 5.57C10.228 5.6096 10.342 5.6552 10.4548 5.7062C10.5724 5.7602 10.6888 5.8208 10.8022 5.8874L11.05 6.0338L11.1172 6.0734L10.8136 7.25001C10.5814 8.14582 10.1398 8.92042 9.53137 9.52883C8.92297 10.1372 8.14836 10.5794 7.25196 10.811L5.51974 11.2586C4.98154 11.3978 4.49854 11.639 4.08753 11.9588L5.14654 12.2426L4.87834 11.7878C4.99174 11.732 5.10394 11.6834 5.21554 11.642C5.33554 11.597 5.46034 11.558 5.58874 11.5244L5.86835 11.4524L5.94455 11.4326L6.56135 12.4802C7.03115 13.2777 7.26636 14.1375 7.26636 14.9979C7.26636 15.8577 7.03115 16.7181 6.56135 17.5149L5.65294 19.0563C5.37034 19.5357 5.19874 20.0487 5.13514 20.5659L6.08435 20.0175L5.57254 19.8849C5.61154 19.7697 5.65714 19.6551 5.70874 19.5429C5.76274 19.4247 5.82275 19.3089 5.88995 19.1955L6.03575 18.9471L6.07535 18.8799L7.25196 19.1841C8.14836 19.4157 8.92297 19.8579 9.53137 20.4663C10.1398 21.0747 10.582 21.8493 10.8136 22.7451L11.2612 24.4773C11.3998 25.0155 11.6416 25.4991 11.9614 25.9101L12.2452 24.8511L11.7904 25.1193C11.7346 25.0065 11.6854 24.8937 11.644 24.7815C11.5996 24.6621 11.56 24.5373 11.527 24.4089L11.455 24.1293L11.4352 24.0531L12.4828 23.4363C13.2796 22.9665 14.14 22.7313 14.9998 22.7313C15.8602 22.7313 16.72 22.9665 17.5174 23.4363L19.0588 24.3447C19.5382 24.6267 20.0513 24.7983 20.5685 24.8625L20.0201 23.9127L19.8874 24.4251C19.7716 24.3855 19.657 24.3399 19.5448 24.2883C19.4308 24.2361 19.315 24.1761 19.1986 24.1077H19.198L18.9496 23.9613L18.8824 23.9217L19.1866 22.7451C19.4182 21.8493 19.8604 21.0747 20.4683 20.4663C21.0773 19.8579 21.8513 19.4157 22.7477 19.1841L24.4799 18.7365C25.0181 18.5973 25.5017 18.3561 25.9127 18.0357L24.8531 17.7519L25.1213 18.2073C25.0085 18.2625 24.8957 18.3117 24.7841 18.3531C24.6641 18.3981 24.5393 18.4371 24.4109 18.4707L24.1319 18.5427L24.0557 18.5619L23.4383 17.5149C22.9691 16.7181 22.7339 15.8577 22.7339 14.9973C22.7339 14.1375 22.9691 13.2777 23.4383 12.4802L24.3467 10.9388C24.6293 10.4594 24.8009 9.94643 24.8651 9.42922ZM24.8261 8.25142L22.7879 9.67883C22.8653 9.70343 22.9433 9.72623 23.0231 9.74723L23.6117 9.89903L24.8885 9.16222C24.9005 8.93602 24.8921 8.71042 24.8639 8.48782C24.8537 8.40922 24.8411 8.33002 24.8261 8.25142ZM24.4583 7.20561L21.9581 9.30322C22.1393 9.41243 22.3319 9.50783 22.5347 9.58823L24.7739 8.02041C24.7013 7.74021 24.5957 7.46721 24.4583 7.20561ZM23.8271 6.3272L21.3275 8.82622C21.4637 8.95402 21.6095 9.07162 21.7643 9.17842L24.3479 7.01001C24.2027 6.76941 24.0287 6.5402 23.8271 6.3272ZM22.9877 5.6498L20.8193 8.23402C20.9261 8.38882 21.0437 8.53462 21.1721 8.67022L23.6711 6.1712C23.4581 5.969 23.2289 5.795 22.9877 5.6498ZM21.9779 5.22379L20.4095 7.46361C20.4899 7.66641 20.5853 7.85841 20.6945 8.04021L22.7927 5.54C22.5317 5.40199 22.2581 5.29639 21.9779 5.22379ZM20.8367 5.10859L20.0987 6.3866L20.2505 6.97401C20.2709 7.05441 20.2943 7.13301 20.3189 7.21041L21.7469 5.17159C21.6677 5.15659 21.5885 5.14339 21.5093 5.13379C21.2867 5.10499 21.0617 5.09719 20.8367 5.10859ZM20.0201 6.083L20.5691 5.13199C20.4065 5.15239 20.2433 5.18359 20.0819 5.22499L20.0686 5.17279C20.0218 4.99099 19.9672 4.81639 19.906 4.65079C19.8484 4.49539 19.7824 4.34119 19.7086 4.18759C20.3471 4.00878 21.0047 3.96198 21.6473 4.04359C22.7075 4.17859 23.7215 4.66039 24.5291 5.468C25.3373 6.2756 25.8191 7.28961 25.9535 8.35042C26.0879 9.40822 25.8749 10.5092 25.2947 11.4944L24.8531 12.2432L25.9127 11.9594C25.7837 11.8586 25.6469 11.7656 25.5041 11.6816L25.5317 11.6348C25.6253 11.4758 25.7099 11.3132 25.7855 11.1494V11.1482C25.8569 10.9934 25.9193 10.838 25.9739 10.6832C26.5517 11.0084 27.0503 11.441 27.4469 11.9528C28.1003 12.7977 28.4765 13.8543 28.4765 14.9979C28.4765 16.1409 28.1003 17.1975 27.4469 18.0423C26.7935 18.8859 25.8635 19.5141 24.7559 19.8003L23.9147 20.0175L24.8651 20.5665C24.8447 20.4033 24.8141 20.2407 24.7721 20.0799L24.8249 20.0661C25.0067 20.0193 25.1813 19.9647 25.3469 19.9035C25.5017 19.8465 25.6565 19.7805 25.8101 19.7067C25.9889 20.3445 26.0351 21.0027 25.9535 21.6447C25.8185 22.7055 25.3373 23.7189 24.5291 24.5271C23.7215 25.3347 22.7075 25.8165 21.6473 25.9515C20.5895 26.0859 19.4884 25.8729 18.5032 25.2921L17.7538 24.8511L18.0376 25.9101C18.1384 25.7811 18.232 25.6443 18.3166 25.5009L18.364 25.5291C18.526 25.6245 18.688 25.7091 18.8488 25.7829C19.0012 25.8537 19.1572 25.9161 19.3138 25.9713C18.9892 26.5498 18.5566 27.0484 18.0442 27.4444C17.1994 28.0984 16.1428 28.474 14.9998 28.474V28.4722C13.855 28.4722 12.7978 28.0966 11.9554 27.4444C11.1118 26.791 10.483 25.8609 10.1968 24.7533L9.97958 23.9121L9.43117 24.8625C9.59377 24.8421 9.75637 24.8115 9.91778 24.7695L9.93098 24.8211V24.8223C9.97838 25.0041 10.0324 25.1787 10.0942 25.3449C10.1512 25.4991 10.2172 25.6539 10.291 25.8075C9.65257 25.9863 8.99437 26.0325 8.35236 25.9515C7.29216 25.8159 6.27815 25.3347 5.47054 24.5265C4.66234 23.7189 4.18113 22.7049 4.04613 21.6447C3.91173 20.5863 4.12473 19.4859 4.70494 18.5007L5.14654 17.7513L4.08693 18.0351C4.21653 18.1365 4.35273 18.2295 4.49614 18.3141L4.46794 18.3615C4.37433 18.5205 4.28973 18.6825 4.21473 18.8463H4.21413C4.14393 18.9993 4.08093 19.1547 4.02573 19.3119C3.44793 18.9867 2.94992 18.5541 2.55332 18.0423C1.89932 17.1975 1.52311 16.1409 1.52311 14.9979C1.52311 13.8549 1.89932 12.7977 2.55332 11.9528C3.20673 11.1092 4.13673 10.481 5.24434 10.1948L6.08555 9.97763L5.13514 9.42863C5.15554 9.59183 5.18614 9.75443 5.22754 9.91583L5.17654 9.92843H5.17534C4.99294 9.97583 4.81894 10.0304 4.65274 10.0916C4.49794 10.1486 4.34373 10.2146 4.19013 10.2884C4.01133 9.65063 3.96453 8.99242 4.04613 8.35042C4.18113 7.29021 4.66294 6.2762 5.47054 5.4686C6.27815 4.66039 7.29216 4.17919 8.35296 4.04419C9.41077 3.90918 10.5118 4.12279 11.497 4.70299L12.2458 5.14399L11.962 4.08439C11.8612 4.21399 11.7682 4.35079 11.6836 4.49419L11.6362 4.46599C11.4766 4.37239 11.3146 4.28779 11.1508 4.21219L11.1514 4.21159C10.9984 4.14139 10.8424 4.07839 10.6858 4.02379C11.0104 3.44538 11.4436 2.94738 11.9554 2.55077C12.7978 1.89857 13.855 1.52297 14.9998 1.52297V1.52057C16.1428 1.52057 17.1994 1.89677 18.0442 2.55077C18.8878 3.20418 19.516 4.13419 19.8028 5.24179L20.0201 6.083Z" fill="white"/>
</svg>
